<svg width="154" height="64" viewBox="0 0 154 64" fill="none" xmlns="http://www.w3.org/2000/svg">
<g filter="url(#filter0_d_135_3)">
<path d="M16.0587 23H11.59V5.07812H4.85562V0.59375H22.7775V5.07812H16.0587V23ZM40.5169 5.07812V14.0469H45.0013C45.6158 14.0469 46.194 13.9323 46.7356 13.7031C47.2773 13.4635 47.7513 13.1406 48.1575 12.7344C48.5638 12.3281 48.8815 11.8542 49.1106 11.3125C49.3502 10.7604 49.47 10.1771 49.47 9.5625C49.47 8.94792 49.3502 8.36979 49.1106 7.82812C48.8815 7.27604 48.5638 6.79688 48.1575 6.39062C47.7513 5.98438 47.2773 5.66667 46.7356 5.4375C46.194 5.19792 45.6158 5.07812 45.0013 5.07812H40.5169ZM40.5169 23H36.0325V0.59375H45.0013C45.8242 0.59375 46.6158 0.703125 47.3763 0.921875C48.1367 1.13021 48.845 1.43229 49.5013 1.82812C50.1679 2.21354 50.7721 2.68229 51.3138 3.23438C51.8658 3.77604 52.3346 4.38021 52.72 5.04688C53.1158 5.71354 53.4179 6.42708 53.6263 7.1875C53.845 7.94792 53.9544 8.73958 53.9544 9.5625C53.9544 10.3333 53.8554 11.0833 53.6575 11.8125C53.47 12.5417 53.194 13.2344 52.8294 13.8906C52.4752 14.5469 52.0377 15.151 51.5169 15.7031C50.996 16.2552 50.4127 16.7344 49.7669 17.1406L52.2513 23H47.4856L45.5325 18.4844L40.5169 18.5156V23ZM85.4594 14.0469C85.4594 15.2865 85.225 16.4531 84.7563 17.5469C84.2875 18.6302 83.6469 19.5781 82.8344 20.3906C82.0219 21.1927 81.0688 21.8281 79.975 22.2969C78.8917 22.7656 77.7302 23 76.4906 23C75.251 23 74.0844 22.7656 72.9906 22.2969C71.9073 21.8281 70.9594 21.1927 70.1469 20.3906C69.3448 19.5781 68.7094 18.6302 68.2406 17.5469C67.7719 16.4531 67.5375 15.2865 67.5375 14.0469V0.59375H72.0063V14.0469C72.0063 14.6615 72.1208 15.2396 72.35 15.7812C72.5896 16.3229 72.9125 16.7969 73.3188 17.2031C73.725 17.6094 74.199 17.9323 74.7406 18.1719C75.2927 18.401 75.876 18.5156 76.4906 18.5156C77.1052 18.5156 77.6833 18.401 78.225 18.1719C78.7771 17.9323 79.2563 17.6094 79.6625 17.2031C80.0688 16.7969 80.3865 16.3229 80.6156 15.7812C80.8552 15.2396 80.975 14.6615 80.975 14.0469V0.59375H85.4594V14.0469ZM118.121 20.7031C117.079 21.599 115.912 22.2865 114.621 22.7656C113.329 23.2448 111.99 23.4844 110.605 23.4844C109.543 23.4844 108.516 23.3438 107.527 23.0625C106.548 22.7917 105.626 22.4062 104.761 21.9062C103.907 21.3958 103.126 20.7865 102.418 20.0781C101.709 19.3698 101.1 18.5885 100.589 17.7344C100.089 16.8698 99.6988 15.9479 99.4175 14.9688C99.1467 13.9792 99.0113 12.9531 99.0113 11.8906C99.0113 10.8281 99.1467 9.80208 99.4175 8.8125C99.6988 7.82292 100.089 6.90104 100.589 6.04688C101.1 5.18229 101.709 4.39583 102.418 3.6875C103.126 2.97917 103.907 2.375 104.761 1.875C105.626 1.36458 106.548 0.973958 107.527 0.703125C108.516 0.421875 109.543 0.28125 110.605 0.28125C111.99 0.28125 113.329 0.520833 114.621 1C115.912 1.46875 117.079 2.15625 118.121 3.0625L115.746 6.96875C115.089 6.26042 114.313 5.71875 113.418 5.34375C112.522 4.95833 111.584 4.76562 110.605 4.76562C109.615 4.76562 108.688 4.95312 107.824 5.32812C106.959 5.70312 106.204 6.21354 105.558 6.85938C104.912 7.49479 104.402 8.25 104.027 9.125C103.652 9.98958 103.464 10.9115 103.464 11.8906C103.464 12.8698 103.652 13.7917 104.027 14.6562C104.402 15.5104 104.912 16.2604 105.558 16.9062C106.204 17.5521 106.959 18.0625 107.824 18.4375C108.688 18.8125 109.615 19 110.605 19C111.584 19 112.522 18.8125 113.418 18.4375C114.313 18.0521 115.089 17.5052 115.746 16.7969L118.121 20.7031ZM136.094 23H131.61V0.59375H136.094V11.7969L144.438 0.59375H149.532L142.454 10.0469L149.532 23H144.438L139.516 13.9375L136.094 18.5156V23ZM36.327 55H26.5223V40.9961H29.325V52.1973H36.327V55ZM54.1242 48.0566C54.1242 48.7207 54.0363 49.362 53.8605 49.9805C53.6913 50.5924 53.4504 51.1686 53.1379 51.709C52.8254 52.2428 52.4478 52.7311 52.0051 53.1738C51.5624 53.6165 51.0741 53.9974 50.5402 54.3164C50.0064 54.6289 49.4302 54.8698 48.8117 55.0391C48.1932 55.2148 47.552 55.3027 46.8879 55.3027C46.2238 55.3027 45.5826 55.2148 44.9641 55.0391C44.3521 54.8698 43.7759 54.6289 43.2355 54.3164C42.7017 53.9974 42.2134 53.6165 41.7707 53.1738C41.328 52.7311 40.9471 52.2428 40.6281 51.709C40.3156 51.1686 40.0715 50.5924 39.8957 49.9805C39.7264 49.362 39.6418 48.7207 39.6418 48.0566C39.6418 47.3926 39.7264 46.7513 39.8957 46.1328C40.0715 45.5143 40.3156 44.9382 40.6281 44.4043C40.9471 43.8704 41.328 43.3822 41.7707 42.9395C42.2134 42.4967 42.7017 42.1191 43.2355 41.8066C43.7759 41.4941 44.3521 41.2533 44.9641 41.084C45.5826 40.9082 46.2238 40.8203 46.8879 40.8203C47.552 40.8203 48.1932 40.9082 48.8117 41.084C49.4302 41.2533 50.0064 41.4941 50.5402 41.8066C51.0741 42.1191 51.5624 42.4967 52.0051 42.9395C52.4478 43.3822 52.8254 43.8704 53.1379 44.4043C53.4504 44.9382 53.6913 45.5143 53.8605 46.1328C54.0363 46.7513 54.1242 47.3926 54.1242 48.0566ZM51.341 48.0566C51.341 47.4447 51.2238 46.8685 50.9895 46.3281C50.7551 45.7812 50.4361 45.3092 50.0324 44.9121C49.6353 44.5085 49.1633 44.1895 48.6164 43.9551C48.076 43.7207 47.4999 43.6035 46.8879 43.6035C46.2694 43.6035 45.69 43.7207 45.1496 43.9551C44.6092 44.1895 44.1372 44.5085 43.7336 44.9121C43.33 45.3092 43.0109 45.7812 42.7766 46.3281C42.5422 46.8685 42.425 47.4447 42.425 48.0566C42.425 48.6686 42.5422 49.2448 42.7766 49.7852C43.0109 50.319 43.33 50.7878 43.7336 51.1914C44.1372 51.5951 44.6092 51.9141 45.1496 52.1484C45.69 52.3828 46.2694 52.5 46.8879 52.5C47.4999 52.5 48.076 52.3828 48.6164 52.1484C49.1633 51.9141 49.6353 51.5951 50.0324 51.1914C50.4361 50.7878 50.7551 50.319 50.9895 49.7852C51.2238 49.2448 51.341 48.6686 51.341 48.0566ZM70.2125 53.584C69.5615 54.1374 68.8355 54.5638 68.0348 54.8633C67.234 55.1562 66.4006 55.3027 65.5348 55.3027C64.8707 55.3027 64.2294 55.2148 63.6109 55.0391C62.999 54.8698 62.426 54.6289 61.8922 54.3164C61.3583 53.9974 60.87 53.6198 60.4273 53.1836C59.9846 52.7409 59.607 52.2526 59.2945 51.7188C58.982 51.1784 58.7379 50.599 58.5621 49.9805C58.3928 49.362 58.3082 48.7207 58.3082 48.0566C58.3082 47.3926 58.3928 46.7546 58.5621 46.1426C58.7379 45.5306 58.982 44.9577 59.2945 44.4238C59.607 43.8835 59.9846 43.3952 60.4273 42.959C60.87 42.5163 61.3583 42.1387 61.8922 41.8262C62.426 41.5137 62.999 41.2728 63.6109 41.1035C64.2294 40.9277 64.8707 40.8398 65.5348 40.8398C66.4006 40.8398 67.234 40.9896 68.0348 41.2891C68.8355 41.582 69.5615 42.0052 70.2125 42.5586L68.7477 45C68.3245 44.5703 67.8362 44.235 67.2828 43.9941C66.7294 43.7467 66.1467 43.623 65.5348 43.623C64.9228 43.623 64.3466 43.7402 63.8062 43.9746C63.2724 44.209 62.8036 44.528 62.4 44.9316C61.9963 45.3288 61.6773 45.7975 61.443 46.3379C61.2086 46.8717 61.0914 47.4447 61.0914 48.0566C61.0914 48.6751 61.2086 49.2546 61.443 49.7949C61.6773 50.3353 61.9963 50.8073 62.4 51.2109C62.8036 51.6146 63.2724 51.9336 63.8062 52.168C64.3466 52.4023 64.9228 52.5195 65.5348 52.5195C65.8863 52.5195 66.2281 52.4772 66.5602 52.3926C66.8922 52.3079 67.2079 52.1908 67.5074 52.041V48.0566H70.2125V53.584ZM78.2734 55H75.4707V40.9961H78.2734V55ZM83.1606 45.1953C83.1606 44.6159 83.2712 44.0723 83.4926 43.5645C83.7139 43.0566 84.0134 42.6139 84.391 42.2363C84.7751 41.8522 85.2211 41.5495 85.7289 41.3281C86.2367 41.1068 86.7803 40.9961 87.3598 40.9961H93.7856V43.7988H87.3598C87.1645 43.7988 86.9822 43.8346 86.8129 43.9062C86.6436 43.9779 86.4939 44.0788 86.3637 44.209C86.24 44.3327 86.1423 44.4792 86.0707 44.6484C85.9991 44.8177 85.9633 45 85.9633 45.1953C85.9633 45.3906 85.9991 45.5762 86.0707 45.752C86.1423 45.9212 86.24 46.071 86.3637 46.2012C86.4939 46.3249 86.6436 46.4225 86.8129 46.4941C86.9822 46.5658 87.1645 46.6016 87.3598 46.6016H90.1625C90.7419 46.6016 91.2856 46.7122 91.7934 46.9336C92.3077 47.1484 92.7537 47.4479 93.1313 47.832C93.5154 48.2096 93.8148 48.6556 94.0297 49.1699C94.251 49.6777 94.3617 50.2214 94.3617 50.8008C94.3617 51.3802 94.251 51.9238 94.0297 52.4316C93.8148 52.9395 93.5154 53.3854 93.1313 53.7695C92.7537 54.1471 92.3077 54.4466 91.7934 54.668C91.2856 54.8893 90.7419 55 90.1625 55H83.9418V52.1973H90.1625C90.3578 52.1973 90.5401 52.1615 90.7094 52.0898C90.8787 52.0182 91.0251 51.9206 91.1488 51.7969C91.279 51.6667 91.38 51.5169 91.4516 51.3477C91.5232 51.1784 91.559 50.9961 91.559 50.8008C91.559 50.6055 91.5232 50.4232 91.4516 50.2539C91.38 50.0846 91.279 49.9382 91.1488 49.8145C91.0251 49.6842 90.8787 49.5833 90.7094 49.5117C90.5401 49.4401 90.3578 49.4043 90.1625 49.4043H87.3598C86.7803 49.4043 86.2367 49.2936 85.7289 49.0723C85.2211 48.8509 84.7751 48.5514 84.391 48.1738C84.0134 47.7897 83.7139 47.3438 83.4926 46.8359C83.2712 46.3216 83.1606 45.7747 83.1606 45.1953ZM104.991 55H102.198V43.7988H97.9891V40.9961H109.19V43.7988H104.991V55ZM116.577 55H113.775V40.9961H116.577V55ZM133.466 53.5645C132.815 54.1243 132.086 54.554 131.279 54.8535C130.472 55.153 129.635 55.3027 128.769 55.3027C128.105 55.3027 127.464 55.2148 126.845 55.0391C126.233 54.8698 125.657 54.6289 125.117 54.3164C124.583 53.9974 124.095 53.6165 123.652 53.1738C123.209 52.7311 122.828 52.2428 122.509 51.709C122.197 51.1686 121.953 50.5924 121.777 49.9805C121.608 49.362 121.523 48.7207 121.523 48.0566C121.523 47.3926 121.608 46.7513 121.777 46.1328C121.953 45.5143 122.197 44.9382 122.509 44.4043C122.828 43.8639 123.209 43.3724 123.652 42.9297C124.095 42.487 124.583 42.1094 125.117 41.7969C125.657 41.4779 126.233 41.2337 126.845 41.0645C127.464 40.8887 128.105 40.8008 128.769 40.8008C129.635 40.8008 130.472 40.9505 131.279 41.25C132.086 41.543 132.815 41.9727 133.466 42.5391L131.982 44.9805C131.572 44.5378 131.087 44.1992 130.527 43.9648C129.967 43.724 129.381 43.6035 128.769 43.6035C128.151 43.6035 127.571 43.7207 127.031 43.9551C126.49 44.1895 126.018 44.5085 125.615 44.9121C125.211 45.3092 124.892 45.7812 124.658 46.3281C124.423 46.8685 124.306 47.4447 124.306 48.0566C124.306 48.6686 124.423 49.2448 124.658 49.7852C124.892 50.319 125.211 50.7878 125.615 51.1914C126.018 51.5951 126.49 51.9141 127.031 52.1484C127.571 52.3828 128.151 52.5 128.769 52.5C129.381 52.5 129.967 52.3828 130.527 52.1484C131.087 51.9076 131.572 51.5658 131.982 51.123L133.466 53.5645Z" fill="black"/>
<path d="M16.0587 23V25H18.0587V23H16.0587ZM11.59 23H9.59V25H11.59V23ZM11.59 5.07812H13.59V3.07812H11.59V5.07812ZM4.85562 5.07812H2.85562V7.07812H4.85562V5.07812ZM4.85562 0.59375V-1.40625H2.85562V0.59375H4.85562ZM22.7775 0.59375H24.7775V-1.40625H22.7775V0.59375ZM22.7775 5.07812V7.07812H24.7775V5.07812H22.7775ZM16.0587 5.07812V3.07812H14.0587V5.07812H16.0587ZM16.0587 21H11.59V25H16.0587V21ZM13.59 23V5.07812H9.59V23H13.59ZM11.59 3.07812H4.85562V7.07812H11.59V3.07812ZM6.85562 5.07812V0.59375H2.85562V5.07812H6.85562ZM4.85562 2.59375H22.7775V-1.40625H4.85562V2.59375ZM20.7775 0.59375V5.07812H24.7775V0.59375H20.7775ZM22.7775 3.07812H16.0587V7.07812H22.7775V3.07812ZM14.0587 5.07812V23H18.0587V5.07812H14.0587ZM40.5169 5.07812V3.07812H38.5169V5.07812H40.5169ZM40.5169 14.0469H38.5169V16.0469H40.5169V14.0469ZM46.7356 13.7031L47.5149 15.5451L47.5298 15.5387L47.5446 15.5322L46.7356 13.7031ZM49.1106 11.3125L47.2759 10.5163L47.2723 10.5247L47.2687 10.5332L49.1106 11.3125ZM49.1106 7.82812L47.2634 8.59488L47.2723 8.61611L47.2816 8.63714L49.1106 7.82812ZM46.7356 5.4375L45.9266 7.26657L45.9414 7.27312L45.9563 7.27943L46.7356 5.4375ZM40.5169 23V25H42.5169V23H40.5169ZM36.0325 23H34.0325V25H36.0325V23ZM36.0325 0.59375V-1.40625H34.0325V0.59375H36.0325ZM47.3763 0.921875L46.8233 2.84393L46.8355 2.84744L46.8478 2.85079L47.3763 0.921875ZM49.5013 1.82812L48.4683 3.54071L48.4842 3.5503L48.5002 3.5596L49.5013 1.82812ZM51.3138 3.23438L49.8861 4.63506L49.8995 4.64865L49.9131 4.66199L51.3138 3.23438ZM52.72 5.04688L50.9885 6.04788L50.9944 6.05795L51.0003 6.06795L52.72 5.04688ZM53.6263 7.1875L51.6973 7.71597L51.7007 7.72822L51.7042 7.74042L53.6263 7.1875ZM53.6575 11.8125L51.7273 11.2886L51.7238 11.3015L51.7205 11.3144L53.6575 11.8125ZM52.8294 13.8906L51.0811 12.9193L51.0751 12.93L51.0693 12.9408L52.8294 13.8906ZM49.7669 17.1406L48.702 15.4477L47.261 16.3541L47.9256 17.9213L49.7669 17.1406ZM52.2513 23V25H55.2716L54.0926 22.2193L52.2513 23ZM47.4856 23L45.65 23.794L46.1716 25H47.4856V23ZM45.5325 18.4844L47.3681 17.6904L46.843 16.4762L45.52 16.4844L45.5325 18.4844ZM40.5169 18.5156L40.5044 16.5157L38.5169 16.528V18.5156H40.5169ZM38.5169 5.07812V14.0469H42.5169V5.07812H38.5169ZM40.5169 16.0469H45.0013V12.0469H40.5169V16.0469ZM45.0013 16.0469C45.8713 16.0469 46.7156 15.8832 47.5149 15.5451L45.9563 11.8612C45.6723 11.9814 45.3604 12.0469 45.0013 12.0469V16.0469ZM47.5446 15.5322C48.3048 15.196 48.9856 14.7347 49.5717 14.1486L46.7433 11.3202C46.5169 11.5466 46.2498 11.7311 45.9266 11.8741L47.5446 15.5322ZM49.5717 14.1486C50.1645 13.5558 50.6255 12.8649 50.9526 12.0918L47.2687 10.5332C47.1375 10.8434 46.963 11.1004 46.7433 11.3202L49.5717 14.1486ZM50.9453 12.1087C51.2963 11.2999 51.47 10.445 51.47 9.5625H47.47C47.47 9.90913 47.4041 10.2209 47.2759 10.5163L50.9453 12.1087ZM51.47 9.5625C51.47 8.68002 51.2962 7.82524 50.9397 7.01911L47.2816 8.63714C47.4042 8.91434 47.47 9.21581 47.47 9.5625H51.47ZM50.9578 7.06137C50.6323 6.27715 50.1708 5.57551 49.5717 4.97641L46.7433 7.80484C46.9567 8.01824 47.1306 8.27493 47.2634 8.59488L50.9578 7.06137ZM49.5717 4.97641C48.979 4.38367 48.288 3.92266 47.5149 3.59557L45.9563 7.27943C46.2666 7.41068 46.5235 7.58508 46.7433 7.80484L49.5717 4.97641ZM47.5446 3.60843C46.7385 3.25187 45.8837 3.07812 45.0013 3.07812V7.07812C45.3479 7.07812 45.6494 7.14396 45.9266 7.26657L47.5446 3.60843ZM45.0013 3.07812H40.5169V7.07812H45.0013V3.07812ZM40.5169 21H36.0325V25H40.5169V21ZM38.0325 23V0.59375H34.0325V23H38.0325ZM36.0325 2.59375H45.0013V-1.40625H36.0325V2.59375ZM45.0013 2.59375C45.6446 2.59375 46.2498 2.67892 46.8233 2.84393L47.9292 -1.00018C46.9819 -1.27267 46.0037 -1.40625 45.0013 -1.40625V2.59375ZM46.8478 2.85079C47.436 3.01195 47.9739 3.24254 48.4683 3.54071L50.5342 0.115542C49.7161 -0.377961 48.8373 -0.751536 47.9047 -1.00704L46.8478 2.85079ZM48.5002 3.5596C49.0097 3.85413 49.4705 4.21144 49.8861 4.63506L52.7414 1.83369C52.0737 1.15315 51.3261 0.572949 50.5023 0.0966549L48.5002 3.5596ZM49.9131 4.66199C50.3367 5.07762 50.694 5.53841 50.9885 6.04788L54.4515 4.04587C53.9752 3.22201 53.395 2.47446 52.7144 1.80676L49.9131 4.66199ZM51.0003 6.06795C51.3031 6.57792 51.5355 7.12544 51.6973 7.71597L55.5552 6.65903C55.3003 5.72873 54.9286 4.84916 54.4397 4.0258L51.0003 6.06795ZM51.7042 7.74042C51.8692 8.314 51.9544 8.91911 51.9544 9.5625H55.9544C55.9544 8.56006 55.8208 7.58184 55.5483 6.63458L51.7042 7.74042ZM51.9544 9.5625C51.9544 10.16 51.878 10.7337 51.7273 11.2886L55.5877 12.3364C55.8329 11.433 55.9544 10.5067 55.9544 9.5625H51.9544ZM51.7205 11.3144C51.5753 11.8789 51.3626 12.4126 51.0811 12.9193L54.5777 14.8619C55.0253 14.0562 55.3647 13.2044 55.5945 12.3106L51.7205 11.3144ZM51.0693 12.9408C50.7995 13.4407 50.4653 13.9033 50.0621 14.3307L52.9717 17.0756C53.6101 16.3988 54.1509 15.653 54.5894 14.8405L51.0693 12.9408ZM50.0621 14.3307C49.6578 14.7593 49.2056 15.1309 48.702 15.4477L50.8318 18.8335C51.6198 18.3378 52.3343 17.7512 52.9717 17.0756L50.0621 14.3307ZM47.9256 17.9213L50.4099 23.7807L54.0926 22.2193L51.6082 16.3599L47.9256 17.9213ZM52.2513 21H47.4856V25H52.2513V21ZM49.3213 22.206L47.3681 17.6904L43.6969 19.2783L45.65 23.794L49.3213 22.206ZM45.52 16.4844L40.5044 16.5157L40.5293 20.5156L45.545 20.4843L45.52 16.4844ZM38.5169 18.5156V23H42.5169V18.5156H38.5169ZM84.7563 17.5469L86.5918 18.3411L86.5945 18.3347L84.7563 17.5469ZM82.8344 20.3906L84.2395 21.814L84.2486 21.8048L82.8344 20.3906ZM79.975 22.2969L79.1872 20.4586L79.1808 20.4613L79.975 22.2969ZM72.9906 22.2969L72.1964 24.1324L72.2028 24.1352L72.9906 22.2969ZM70.1469 20.3906L68.7236 21.7957L68.7326 21.8049L68.7418 21.8139L70.1469 20.3906ZM68.2406 17.5469L66.4023 18.3347L66.4051 18.3411L68.2406 17.5469ZM67.5375 0.59375V-1.40625H65.5375V0.59375H67.5375ZM72.0063 0.59375H74.0063V-1.40625H72.0063V0.59375ZM72.35 15.7812L70.5081 16.5605L70.5144 16.5754L70.5209 16.5903L72.35 15.7812ZM74.7406 18.1719L73.9316 20.0009L73.9526 20.0102L73.9739 20.0191L74.7406 18.1719ZM78.225 18.1719L79.0043 20.0138L79.0128 20.0102L79.0212 20.0066L78.225 18.1719ZM80.6156 15.7812L78.7866 14.9722L78.78 14.9871L78.7737 15.002L80.6156 15.7812ZM80.975 0.59375V-1.40625H78.975V0.59375H80.975ZM85.4594 0.59375H87.4594V-1.40625H85.4594V0.59375ZM83.4594 14.0469C83.4594 15.0271 83.2756 15.9246 82.918 16.759L86.5945 18.3347C87.1744 16.9816 87.4594 15.5458 87.4594 14.0469H83.4594ZM82.9207 16.7527C82.5493 17.6111 82.0495 18.3471 81.4202 18.9764L84.2486 21.8048C85.2442 20.8092 86.0257 19.6494 86.5918 18.3411L82.9207 16.7527ZM81.4293 18.9673C80.8023 19.5863 80.0609 20.0841 79.1872 20.4586L80.7628 24.1352C82.0766 23.5721 83.2415 22.7991 84.2394 21.8139L81.4293 18.9673ZM79.1808 20.4613C78.3607 20.8162 77.471 21 76.4906 21V25C77.9895 25 79.4227 24.7151 80.7692 24.1324L79.1808 20.4613ZM76.4906 21C75.5104 21 74.6129 20.8162 73.7785 20.4586L72.2028 24.1352C73.5559 24.7151 74.9917 25 76.4906 25V21ZM73.7849 20.4613C72.9211 20.0876 72.1821 19.5894 71.5519 18.9673L68.7418 21.8139C69.7366 22.796 70.8935 23.5687 72.1964 24.1324L73.7849 20.4613ZM71.5702 18.9856C70.9481 18.3554 70.4499 17.6164 70.0762 16.7527L66.4051 18.3411C66.9688 19.644 67.7415 20.8009 68.7236 21.7957L71.5702 18.9856ZM70.0789 16.759C69.7213 15.9246 69.5375 15.0271 69.5375 14.0469H65.5375C65.5375 15.5458 65.8224 16.9816 66.4023 18.3347L70.0789 16.759ZM69.5375 14.0469V0.59375H65.5375V14.0469H69.5375ZM67.5375 2.59375H72.0063V-1.40625H67.5375V2.59375ZM70.0063 0.59375V14.0469H74.0063V0.59375H70.0063ZM70.0063 14.0469C70.0063 14.9169 70.1699 15.7613 70.5081 16.5605L74.1919 15.002C74.0718 14.7179 74.0063 14.406 74.0063 14.0469H70.0063ZM70.5209 16.5903C70.8572 17.3504 71.3185 18.0313 71.9045 18.6173L74.733 15.7889C74.5065 15.5625 74.322 15.2954 74.1791 14.9722L70.5209 16.5903ZM71.9045 18.6173C72.4906 19.2034 73.1715 19.6647 73.9316 20.0009L75.5496 16.3428C75.2265 16.1999 74.9594 16.0153 74.733 15.7889L71.9045 18.6173ZM73.9739 20.0191C74.7759 20.352 75.6205 20.5156 76.4906 20.5156V16.5156C76.1316 16.5156 75.8095 16.4501 75.5074 16.3247L73.9739 20.0191ZM76.4906 20.5156C77.3607 20.5156 78.205 20.352 79.0043 20.0138L77.4457 16.3299C77.1617 16.4501 76.8498 16.5156 76.4906 16.5156V20.5156ZM79.0212 20.0066C79.7928 19.6717 80.4843 19.2097 81.0767 18.6173L78.2483 15.7889C78.0282 16.009 77.7614 16.1928 77.4288 16.3372L79.0212 20.0066ZM81.0767 18.6173C81.6695 18.0246 82.1305 17.3337 82.4576 16.5605L78.7737 15.002C78.6425 15.3122 78.468 15.5692 78.2483 15.7889L81.0767 18.6173ZM82.4447 16.5903C82.8013 15.7841 82.975 14.9294 82.975 14.0469H78.975C78.975 14.3936 78.9092 14.695 78.7866 14.9722L82.4447 16.5903ZM82.975 14.0469V0.59375H78.975V14.0469H82.975ZM80.975 2.59375H85.4594V-1.40625H80.975V2.59375ZM83.4594 0.59375V14.0469H87.4594V0.59375H83.4594ZM118.121 20.7031L119.425 22.2195L120.711 21.1135L119.83 19.6641L118.121 20.7031ZM114.621 22.7656L113.925 20.8905L114.621 22.7656ZM107.527 23.0625L108.074 21.1386L108.06 21.1349L107.527 23.0625ZM104.761 21.9062L103.735 23.6231L103.748 23.6304L103.76 23.6376L104.761 21.9062ZM100.589 17.7344L98.8581 18.7356L98.8652 18.748L98.8726 18.7603L100.589 17.7344ZM99.4175 14.9688L97.4885 15.4967L97.4918 15.5088L97.4952 15.5209L99.4175 14.9688ZM99.4175 8.8125L97.4937 8.26573L97.491 8.27513L97.4885 8.28455L99.4175 8.8125ZM100.589 6.04688L98.8671 5.03011L98.8633 5.03652L100.589 6.04688ZM104.761 1.875L105.772 3.60104L105.778 3.59727L104.761 1.875ZM107.527 0.703125L108.06 2.63079L108.074 2.62694L107.527 0.703125ZM114.621 1L113.925 2.87513L113.932 2.87761L113.938 2.88003L114.621 1ZM118.121 3.0625L119.83 4.10153L120.706 2.66053L119.433 1.55361L118.121 3.0625ZM115.746 6.96875L114.279 8.328L116.079 10.2709L117.455 8.00778L115.746 6.96875ZM113.418 5.34375L112.627 7.18093L112.636 7.18483L112.645 7.18863L113.418 5.34375ZM105.558 6.85938L106.961 8.28504L106.967 8.27934L106.972 8.27359L105.558 6.85938ZM104.027 9.125L105.862 9.92084L105.865 9.91284L104.027 9.125ZM104.027 14.6562L102.192 15.4521L102.196 15.4602L104.027 14.6562ZM105.558 16.9062L104.144 18.3205L105.558 16.9062ZM113.418 18.4375L114.19 20.2824L114.199 20.2786L114.208 20.2747L113.418 18.4375ZM115.746 16.7969L117.455 15.7578L116.079 13.4947L114.279 15.4376L115.746 16.7969ZM116.817 19.1868C115.955 19.9274 114.995 20.4936 113.925 20.8905L115.316 24.6408C116.83 24.0793 118.203 23.2705 119.425 22.2195L116.817 19.1868ZM113.925 20.8905C112.857 21.2866 111.754 21.4844 110.605 21.4844V25.4844C112.227 25.4844 113.801 25.203 115.316 24.6408L113.925 20.8905ZM110.605 21.4844C109.721 21.4844 108.88 21.3677 108.074 21.1387L106.98 24.9863C108.153 25.3198 109.364 25.4844 110.605 25.4844V21.4844ZM108.06 21.1349C107.242 20.9085 106.478 20.5884 105.763 20.1749L103.76 23.6376C104.774 24.2241 105.854 24.6748 106.994 24.9901L108.06 21.1349ZM105.787 20.1894C105.075 19.7641 104.424 19.2566 103.832 18.6639L101.003 21.4923C101.827 22.3164 102.739 23.0276 103.735 23.6231L105.787 20.1894ZM103.832 18.6639C103.239 18.0713 102.732 17.4203 102.306 16.7085L98.8726 18.7603C99.468 19.7568 100.179 20.6683 101.003 21.4923L103.832 18.6639ZM102.321 16.7331C101.904 16.0127 101.577 15.242 101.34 14.4166L97.4952 15.5209C97.8206 16.6538 98.2747 17.7269 98.8581 18.7356L102.321 16.7331ZM101.347 14.4408C101.124 13.6293 101.011 12.7811 101.011 11.8906H97.0113C97.0113 13.1251 97.1689 14.329 97.4885 15.4967L101.347 14.4408ZM101.011 11.8906C101.011 11.0001 101.124 10.152 101.347 9.34045L97.4885 8.28455C97.1689 9.45221 97.0113 10.6561 97.0113 11.8906H101.011ZM101.341 9.35927C101.578 8.52552 101.904 7.76019 102.315 7.05723L98.8633 5.03652C98.2748 6.0419 97.8192 7.12031 97.4937 8.26573L101.341 9.35927ZM102.312 7.06363C102.737 6.34364 103.243 5.69078 103.832 5.10171L101.003 2.27329C100.176 3.10089 99.4629 4.02095 98.8671 5.03012L102.312 7.06363ZM103.832 5.10171C104.421 4.51266 105.067 4.01371 105.772 3.60103L103.751 0.148971C102.748 0.73629 101.831 1.44567 101.003 2.27329L103.832 5.10171ZM105.778 3.59727C106.489 3.17733 107.248 2.85525 108.06 2.63075L106.994 -1.2245C105.847 -0.907337 104.762 -0.448168 103.745 0.152734L105.778 3.59727ZM108.074 2.62694C108.88 2.39787 109.721 2.28125 110.605 2.28125V-1.71875C109.364 -1.71875 108.153 -1.55412 106.98 -1.22069L108.074 2.62694ZM110.605 2.28125C111.754 2.28125 112.857 2.47902 113.925 2.87513L115.316 -0.875133C113.801 -1.43736 112.227 -1.71875 110.605 -1.71875V2.28125ZM113.938 2.88003C114.998 3.26447 115.951 3.82577 116.808 4.57139L119.433 1.55361C118.207 0.486734 116.827 -0.326968 115.303 -0.880029L113.938 2.88003ZM116.412 2.02347L114.037 5.92972L117.455 8.00778L119.83 4.10153L116.412 2.02347ZM117.213 5.6095C116.361 4.69026 115.348 3.98358 114.19 3.49887L112.645 7.18863C113.279 7.45392 113.818 7.83057 114.279 8.328L117.213 5.6095ZM114.208 3.50657C113.061 3.01329 111.855 2.76562 110.605 2.76562V6.76562C111.314 6.76562 111.982 6.90338 112.627 7.18093L114.208 3.50657ZM110.605 2.76562C109.356 2.76562 108.156 3.00391 107.028 3.49328L108.62 7.16297C109.22 6.90234 109.875 6.76562 110.605 6.76562V2.76562ZM107.028 3.49328C105.94 3.96512 104.973 4.61581 104.144 5.44516L106.972 8.27359C107.435 7.81128 107.978 7.44113 108.62 7.16297L107.028 3.49328ZM104.155 5.43371C103.315 6.26058 102.661 7.23558 102.189 8.33716L105.865 9.91284C106.143 9.26442 106.51 8.72901 106.961 8.28504L104.155 5.43371ZM102.192 8.32916C101.704 9.45475 101.464 10.6486 101.464 11.8906H105.464C105.464 11.1743 105.6 10.5244 105.862 9.92084L102.192 8.32916ZM101.464 11.8906C101.464 13.1327 101.704 14.3265 102.192 15.4521L105.862 13.8604C105.6 13.2568 105.464 12.6069 105.464 11.8906H101.464ZM102.196 15.4602C102.668 16.537 103.319 17.4951 104.144 18.3205L106.972 15.492C106.506 15.0257 106.135 14.4838 105.858 13.8523L102.196 15.4602ZM104.144 18.3205C104.973 19.1498 105.94 19.8005 107.028 20.2723L108.62 16.6027C107.978 16.3245 107.435 15.9543 106.972 15.492L104.144 18.3205ZM107.028 20.2723C108.156 20.7617 109.356 21 110.605 21V17C109.875 17 109.22 16.8633 108.62 16.6027L107.028 20.2723ZM110.605 21C111.847 21 113.047 20.7606 114.19 20.2824L112.645 16.5926C111.996 16.8644 111.321 17 110.605 17V21ZM114.208 20.2747C115.358 19.7801 116.365 19.0713 117.213 18.1561L114.279 15.4376C113.814 15.9391 113.269 16.3241 112.627 16.6003L114.208 20.2747ZM114.037 17.8359L116.412 21.7422L119.83 19.6641L117.455 15.7578L114.037 17.8359ZM136.094 23V25H138.094V23H136.094ZM131.61 23H129.61V25H131.61V23ZM131.61 0.59375V-1.40625H129.61V0.59375H131.61ZM136.094 0.59375H138.094V-1.40625H136.094V0.59375ZM136.094 11.7969H134.094V17.8306L137.698 12.9915L136.094 11.7969ZM144.438 0.59375V-1.40625H143.434L142.834 -0.600874L144.438 0.59375ZM149.532 0.59375L151.133 1.79248L153.528 -1.40625H149.532V0.59375ZM142.454 10.0469L140.853 8.84815L140.082 9.87749L140.699 11.0059L142.454 10.0469ZM149.532 23V25H152.904L151.287 22.041L149.532 23ZM144.438 23L142.681 23.9545L143.248 25H144.438V23ZM139.516 13.9375L141.274 12.983L139.784 10.2392L137.914 12.7401L139.516 13.9375ZM136.094 18.5156L134.492 17.3183L134.094 17.8508V18.5156H136.094ZM136.094 21H131.61V25H136.094V21ZM133.61 23V0.59375H129.61V23H133.61ZM131.61 2.59375H136.094V-1.40625H131.61V2.59375ZM134.094 0.59375V11.7969H138.094V0.59375H134.094ZM137.698 12.9915L146.042 1.78837L142.834 -0.600874L134.49 10.6023L137.698 12.9915ZM144.438 2.59375H149.532V-1.40625H144.438V2.59375ZM147.931 -0.60498L140.853 8.84815L144.055 11.2456L151.133 1.79248L147.931 -0.60498ZM140.699 11.0059L147.777 23.959L151.287 22.041L144.209 9.08784L140.699 11.0059ZM149.532 21H144.438V25H149.532V21ZM146.196 22.0455L141.274 12.983L137.759 14.892L142.681 23.9545L146.196 22.0455ZM137.914 12.7401L134.492 17.3183L137.696 19.713L141.118 15.1349L137.914 12.7401ZM134.094 18.5156V23H138.094V18.5156H134.094ZM36.327 55V57H38.327V55H36.327ZM26.5223 55H24.5223V57H26.5223V55ZM26.5223 40.9961V38.9961H24.5223V40.9961H26.5223ZM29.325 40.9961H31.325V38.9961H29.325V40.9961ZM29.325 52.1973H27.325V54.1973H29.325V52.1973ZM36.327 52.1973H38.327V50.1973H36.327V52.1973ZM36.327 53H26.5223V57H36.327V53ZM28.5223 55V40.9961H24.5223V55H28.5223ZM26.5223 42.9961H29.325V38.9961H26.5223V42.9961ZM27.325 40.9961V52.1973H31.325V40.9961H27.325ZM29.325 54.1973H36.327V50.1973H29.325V54.1973ZM34.327 52.1973V55H38.327V52.1973H34.327ZM53.8605 49.9805L51.9367 49.4337L51.9329 49.4473L53.8605 49.9805ZM53.1379 51.709L54.864 52.7194L54.8692 52.7102L53.1379 51.709ZM50.5402 54.3164L51.5506 56.0424L51.5584 56.0379L51.5661 56.0332L50.5402 54.3164ZM48.8117 55.0391L48.2838 53.11L48.2744 53.1126L48.265 53.1152L48.8117 55.0391ZM44.9641 55.0391L45.5108 53.1152L45.4972 53.1114L44.9641 55.0391ZM43.2355 54.3164L42.2096 56.0332L42.2219 56.0406L42.2343 56.0477L43.2355 54.3164ZM40.6281 51.709L38.8968 52.7102L38.904 52.7226L38.9113 52.7349L40.6281 51.709ZM39.8957 49.9805L37.9666 50.5084L37.97 50.5205L37.9734 50.5326L39.8957 49.9805ZM39.8957 46.1328L37.9719 45.586L37.9692 45.5954L37.9666 45.6049L39.8957 46.1328ZM40.6281 44.4043L38.9113 43.3784L38.9067 43.3861L38.9021 43.3939L40.6281 44.4043ZM43.2355 41.8066L42.2343 40.0753L42.2252 40.0806L43.2355 41.8066ZM44.9641 41.084L45.4973 43.0117L45.5108 43.0078L44.9641 41.084ZM48.8117 41.084L48.265 43.0078L48.2744 43.0105L48.2838 43.013L48.8117 41.084ZM53.8605 46.1328L51.9315 46.6608L51.9341 46.6702L51.9367 46.6796L53.8605 46.1328ZM50.9895 46.3281L49.1512 47.116L49.1546 47.124L50.9895 46.3281ZM50.0324 44.9121L48.6068 46.3148L48.6182 46.3264L48.6298 46.3378L50.0324 44.9121ZM48.6164 43.9551L47.8206 45.7899L47.8286 45.7934L48.6164 43.9551ZM43.7336 44.9121L45.1363 46.3378L45.1421 46.3321L45.1478 46.3263L43.7336 44.9121ZM42.7766 46.3281L44.6114 47.124L44.6149 47.116L42.7766 46.3281ZM42.7766 49.7852L40.9417 50.581L40.9453 50.5891L42.7766 49.7852ZM43.7336 51.1914L42.3194 52.6056L43.7336 51.1914ZM48.6164 52.1484L47.8286 50.3101L47.8206 50.3136L48.6164 52.1484ZM50.0324 51.1914L48.6182 49.7772L48.6125 49.7829L48.6068 49.7887L50.0324 51.1914ZM50.9895 49.7852L52.8208 50.5891L52.8243 50.581L50.9895 49.7852ZM52.1242 48.0566C52.1242 48.5419 52.0603 48.9988 51.9367 49.4337L55.7844 50.5272C56.0123 49.7251 56.1242 48.8995 56.1242 48.0566H52.1242ZM51.9329 49.4473C51.8082 49.8984 51.6326 50.317 51.4066 50.7077L54.8692 52.7102C55.2682 52.0203 55.5744 51.2865 55.7882 50.5136L51.9329 49.4473ZM51.4119 50.6986C51.1867 51.0833 50.9143 51.4362 50.5909 51.7596L53.4193 54.588C53.9813 54.0261 54.4641 53.4024 54.8639 52.7193L51.4119 50.6986ZM50.5909 51.7596C50.2639 52.0866 49.9058 52.3656 49.5143 52.5996L51.5661 56.0332C52.2424 55.6292 52.8609 55.1464 53.4193 54.588L50.5909 51.7596ZM49.5299 52.5904C49.1527 52.8112 48.7395 52.9853 48.2838 53.11L49.3397 56.9681C50.121 56.7543 50.8601 56.4466 51.5506 56.0424L49.5299 52.5904ZM48.265 53.1152C47.8301 53.2388 47.3732 53.3027 46.8879 53.3027V57.3027C47.7308 57.3027 48.5564 57.1908 49.3585 56.9629L48.265 53.1152ZM46.8879 53.3027C46.4026 53.3027 45.9457 53.2388 45.5108 53.1152L44.4173 56.9629C45.2194 57.1908 46.045 57.3027 46.8879 57.3027V53.3027ZM45.4972 53.1114C45.0461 52.9867 44.6276 52.8111 44.2368 52.5851L42.2343 56.0477C42.9243 56.4467 43.658 56.7529 44.4309 56.9667L45.4972 53.1114ZM44.2615 52.5996C43.87 52.3656 43.5119 52.0866 43.1849 51.7596L40.3565 54.588C40.9149 55.1464 41.5334 55.6292 42.2096 56.0332L44.2615 52.5996ZM43.1849 51.7596C42.8579 51.4326 42.5789 51.0746 42.345 50.6831L38.9113 52.7349C39.3154 53.4111 39.7981 54.0296 40.3565 54.588L43.1849 51.7596ZM42.3595 50.7077C42.1303 50.3115 41.9496 49.8865 41.818 49.4283L37.9734 50.5326C38.1934 51.2984 38.5009 52.0257 38.8968 52.7102L42.3595 50.7077ZM41.8248 49.4525C41.7042 49.0121 41.6418 48.5487 41.6418 48.0566H37.6418C37.6418 48.8927 37.7486 49.7119 37.9666 50.5084L41.8248 49.4525ZM41.6418 48.0566C41.6418 47.5646 41.7042 47.1012 41.8248 46.6608L37.9666 45.6049C37.7486 46.4014 37.6418 47.2206 37.6418 48.0566H41.6418ZM41.8195 46.6796C41.951 46.2169 42.1302 45.7973 42.3542 45.4147L38.9021 43.3939C38.5011 44.079 38.192 44.8117 37.9719 45.586L41.8195 46.6796ZM42.345 45.4302C42.5789 45.0387 42.8579 44.6807 43.1849 44.3537L40.3565 41.5252C39.7981 42.0836 39.3154 42.7022 38.9113 43.3784L42.345 45.4302ZM43.1849 44.3537C43.5083 44.0302 43.8612 43.7579 44.2459 43.5327L42.2252 40.0806C41.5422 40.4804 40.9185 40.9633 40.3565 41.5252L43.1849 44.3537ZM44.2368 43.538C44.6276 43.312 45.0461 43.1364 45.4972 43.0116L44.4309 39.1564C43.658 39.3701 42.9243 39.6763 42.2343 40.0753L44.2368 43.538ZM45.5108 43.0078C45.9457 42.8842 46.4026 42.8203 46.8879 42.8203V38.8203C46.045 38.8203 45.2194 38.9322 44.4173 39.1602L45.5108 43.0078ZM46.8879 42.8203C47.3732 42.8203 47.8301 42.8842 48.265 43.0078L49.3585 39.1602C48.5564 38.9322 47.7308 38.8203 46.8879 38.8203V42.8203ZM48.2838 43.013C48.7395 43.1378 49.1527 43.3119 49.5299 43.5327L51.5506 40.0806C50.8601 39.6764 50.121 39.3688 49.3397 39.1549L48.2838 43.013ZM49.5299 43.5327C49.9146 43.7579 50.2674 44.0302 50.5909 44.3537L53.4193 41.5252C52.8573 40.9633 52.2336 40.4804 51.5506 40.0806L49.5299 43.5327ZM50.5909 44.3537C50.9143 44.6771 51.1867 45.03 51.4119 45.4147L54.8639 43.3939C54.4641 42.7109 53.9813 42.0872 53.4193 41.5252L50.5909 44.3537ZM51.4119 45.4147C51.6327 45.7918 51.8068 46.2051 51.9315 46.6608L55.7896 45.6049C55.5758 44.8236 55.2681 44.0845 54.8639 43.3939L51.4119 45.4147ZM51.9367 46.6796C52.0603 47.1144 52.1242 47.5714 52.1242 48.0566H56.1242C56.1242 47.2138 56.0123 46.3882 55.7844 45.586L51.9367 46.6796ZM53.341 48.0566C53.341 47.1818 53.1719 46.3337 52.8243 45.5323L49.1546 47.124C49.2758 47.4033 49.341 47.7075 49.341 48.0566H53.341ZM52.8277 45.5403C52.4963 44.7668 52.0333 44.075 51.4351 43.4864L48.6298 46.3378C48.8388 46.5435 49.0139 46.7957 49.1512 47.116L52.8277 45.5403ZM51.4581 43.5094C50.8695 42.9112 50.1777 42.4483 49.4043 42.1168L47.8286 45.7934C48.1489 45.9306 48.4011 46.1057 48.6068 46.3148L51.4581 43.5094ZM49.4122 42.1202C48.6109 41.7727 47.7627 41.6035 46.8879 41.6035V45.6035C47.237 45.6035 47.5412 45.6688 47.8206 45.7899L49.4122 42.1202ZM46.8879 41.6035C46.0096 41.6035 45.1578 41.7715 44.3538 42.1202L45.9454 45.7899C46.2221 45.6699 46.5292 45.6035 46.8879 45.6035V41.6035ZM44.3538 42.1202C43.5901 42.4514 42.9066 42.9107 42.3194 43.4979L45.1478 46.3263C45.3679 46.1062 45.6283 45.9275 45.9454 45.7899L44.3538 42.1202ZM42.3309 43.4864C41.7327 44.075 41.2698 44.7668 40.9383 45.5403L44.6149 47.116C44.7521 46.7957 44.9272 46.5435 45.1363 46.3378L42.3309 43.4864ZM40.9417 45.5323C40.5941 46.3337 40.425 47.1818 40.425 48.0566H44.425C44.425 47.7075 44.4902 47.4033 44.6114 47.124L40.9417 45.5323ZM40.425 48.0566C40.425 48.9315 40.5941 49.7796 40.9417 50.581L44.6114 48.9893C44.4902 48.71 44.425 48.4058 44.425 48.0566H40.425ZM40.9453 50.5891C41.2774 51.3456 41.7362 52.0225 42.3194 52.6056L45.1478 49.7772C44.9237 49.5531 44.7445 49.2924 44.6078 48.9812L40.9453 50.5891ZM42.3194 52.6056C42.9066 53.1928 43.5901 53.6521 44.3538 53.9833L45.9454 50.3136C45.6283 50.1761 45.3679 49.9973 45.1478 49.7772L42.3194 52.6056ZM44.3538 53.9833C45.1578 54.332 46.0096 54.5 46.8879 54.5V50.5C46.5292 50.5 46.2221 50.4336 45.9454 50.3136L44.3538 53.9833ZM46.8879 54.5C47.7627 54.5 48.6109 54.3309 49.4122 53.9833L47.8206 50.3136C47.5412 50.4348 47.237 50.5 46.8879 50.5V54.5ZM49.4043 53.9867C50.1777 53.6552 50.8695 53.1923 51.4581 52.5941L48.6068 49.7887C48.4011 49.9978 48.1489 50.1729 47.8286 50.3102L49.4043 53.9867ZM51.4466 52.6056C52.0298 52.0225 52.4886 51.3456 52.8207 50.5891L49.1582 48.9812C49.0215 49.2924 48.8423 49.5531 48.6182 49.7772L51.4466 52.6056ZM52.8243 50.581C53.1719 49.7796 53.341 48.9315 53.341 48.0566H49.341C49.341 48.4058 49.2758 48.71 49.1546 48.9893L52.8243 50.581ZM70.2125 53.584L71.5078 55.1079L72.2125 54.5089V53.584H70.2125ZM68.0348 54.8633L68.7219 56.7415L68.7286 56.7391L68.7353 56.7366L68.0348 54.8633ZM63.6109 55.0391L64.1577 53.1152L64.1441 53.1114L63.6109 55.0391ZM61.8922 54.3164L60.8663 56.0332L60.874 56.0379L60.8818 56.0424L61.8922 54.3164ZM60.4273 53.1836L59.0131 54.5978L59.0184 54.603L59.0236 54.6082L60.4273 53.1836ZM59.2945 51.7188L57.5632 52.72L57.5685 52.7291L59.2945 51.7188ZM58.5621 49.9805L56.633 50.5084L56.6356 50.5178L56.6383 50.5272L58.5621 49.9805ZM58.5621 46.1426L56.6398 45.5904L56.6371 45.5999L56.6345 45.6094L58.5621 46.1426ZM59.2945 44.4238L61.0206 45.4342L61.0258 45.4251L59.2945 44.4238ZM60.4273 42.959L61.831 44.3836L61.8363 44.3784L61.8416 44.3732L60.4273 42.959ZM63.6109 41.1035L64.1441 43.0312L64.1577 43.0273L63.6109 41.1035ZM68.0348 41.2891L67.3342 43.1623L67.3409 43.1649L67.3476 43.1673L68.0348 41.2891ZM70.2125 42.5586L71.9275 43.5876L72.8001 42.1332L71.5078 41.0347L70.2125 42.5586ZM68.7477 45L67.3227 46.4034L69.1343 48.2429L70.4626 46.029L68.7477 45ZM67.2828 43.9941L66.4666 45.82L66.4755 45.824L66.4846 45.8279L67.2828 43.9941ZM63.8062 43.9746L63.0104 42.1397L63.0023 42.1433L63.8062 43.9746ZM62.4 44.9316L63.8027 46.3573L63.8085 46.3516L63.8142 46.3459L62.4 44.9316ZM61.443 46.3379L63.2743 47.1419L63.2778 47.1337L61.443 46.3379ZM61.443 49.7949L59.6081 50.5908L61.443 49.7949ZM62.4 51.2109L60.9858 52.6252L62.4 51.2109ZM63.8062 52.168L63.0023 53.9993L63.0104 54.0028L63.8062 52.168ZM67.5074 52.041L68.4018 53.8299L69.5074 53.2771V52.041H67.5074ZM67.5074 48.0566V46.0566H65.5074V48.0566H67.5074ZM70.2125 48.0566H72.2125V46.0566H70.2125V48.0566ZM68.9172 52.0601C68.4428 52.4634 67.9181 52.7716 67.3342 52.99L68.7353 56.7366C69.753 56.356 70.6801 55.8114 71.5078 55.1079L68.9172 52.0601ZM67.3476 52.985C66.7704 53.1962 66.1699 53.3027 65.5348 53.3027V57.3027C66.6314 57.3027 67.6975 57.1163 68.7219 56.7415L67.3476 52.985ZM65.5348 53.3027C65.0495 53.3027 64.5926 53.2388 64.1577 53.1152L63.0642 56.9629C63.8663 57.1908 64.6919 57.3027 65.5348 57.3027V53.3027ZM64.1441 53.1114C63.6948 52.9872 63.2828 52.813 62.9025 52.5904L60.8818 56.0424C61.5693 56.4448 62.3031 56.7524 63.0778 56.9667L64.1441 53.1114ZM62.9181 52.5996C62.5213 52.3625 62.1599 52.0829 61.831 51.7589L59.0236 54.6082C59.5802 55.1566 60.1954 55.6323 60.8663 56.0332L62.9181 52.5996ZM61.8416 51.7694C61.5181 51.446 61.2457 51.0931 61.0206 50.7084L57.5685 52.7291C57.9683 53.4121 58.4511 54.0358 59.0131 54.5978L61.8416 51.7694ZM61.0258 50.7175C60.7985 50.3244 60.6179 49.8981 60.4859 49.4337L56.6383 50.5272C56.8579 51.2998 57.1656 52.0324 57.5632 52.72L61.0258 50.7175ZM60.4912 49.4525C60.3706 49.0121 60.3082 48.5487 60.3082 48.0566H56.3082C56.3082 48.8927 56.415 49.7119 56.633 50.5084L60.4912 49.4525ZM60.3082 48.0566C60.3082 47.5645 60.3707 47.1063 60.4897 46.6758L56.6345 45.6094C56.415 46.4028 56.3082 47.2207 56.3082 48.0566H60.3082ZM60.4844 46.6947C60.6155 46.2383 60.7948 45.8199 61.0206 45.4342L57.5685 43.4135C57.1693 44.0955 56.8603 44.8229 56.6398 45.5904L60.4844 46.6947ZM61.0258 45.4251C61.249 45.0392 61.5166 44.6935 61.831 44.3836L59.0236 41.5343C58.4527 42.0969 57.965 42.7277 57.5632 43.4226L61.0258 45.4251ZM61.8416 44.3732C62.165 44.0498 62.5179 43.7774 62.9025 43.5522L60.8818 40.1001C60.1988 40.5 59.5751 40.9828 59.0131 41.5448L61.8416 44.3732ZM62.9025 43.5522C63.2828 43.3296 63.6948 43.1554 64.1441 43.0311L63.0778 39.1759C62.3031 39.3902 61.5693 39.6977 60.8818 40.1001L62.9025 43.5522ZM64.1577 43.0273C64.5926 42.9037 65.0495 42.8398 65.5348 42.8398V38.8398C64.6919 38.8398 63.8663 38.9517 63.0642 39.1797L64.1577 43.0273ZM65.5348 42.8398C66.1646 42.8398 66.7604 42.9478 67.3342 43.1623L68.7353 39.4158C67.7076 39.0314 66.6367 38.8398 65.5348 38.8398V42.8398ZM67.3476 43.1673C67.9258 43.3789 68.4459 43.6819 68.9172 44.0825L71.5078 41.0347C70.677 40.3285 69.7452 39.7852 68.7219 39.4108L67.3476 43.1673ZM68.4975 41.5296L67.0327 43.971L70.4626 46.029L71.9275 43.5876L68.4975 41.5296ZM70.1726 43.5966C69.5698 42.9846 68.8688 42.5032 68.0811 42.1603L66.4846 45.8279C66.8036 45.9668 67.0791 46.1561 67.3227 46.4034L70.1726 43.5966ZM68.0991 42.1683C67.2863 41.805 66.4253 41.623 65.5348 41.623V45.623C65.8682 45.623 66.1725 45.6885 66.4666 45.82L68.0991 42.1683ZM65.5348 41.623C64.6599 41.623 63.8118 41.7922 63.0104 42.1398L64.6021 45.8095C64.8814 45.6883 65.1857 45.623 65.5348 45.623V41.623ZM63.0023 42.1433C62.2458 42.4754 61.569 42.9343 60.9858 43.5174L63.8142 46.3459C64.0383 46.1217 64.299 45.9425 64.6102 45.8059L63.0023 42.1433ZM60.9973 43.506C60.4032 44.0906 59.9406 44.7756 59.6081 45.5421L63.2778 47.1337C63.4141 46.8195 63.5895 46.567 63.8027 46.3573L60.9973 43.506ZM59.6117 45.5339C59.2605 46.3337 59.0914 47.1819 59.0914 48.0566H63.0914C63.0914 47.7074 63.1566 47.4098 63.2742 47.1419L59.6117 45.5339ZM59.0914 48.0566C59.0914 48.9349 59.2594 49.7867 59.6081 50.5908L63.2778 48.9991C63.1578 48.7224 63.0914 48.4153 63.0914 48.0566H59.0914ZM59.6081 50.5908C59.9393 51.3544 60.3986 52.038 60.9858 52.6252L63.8142 49.7967C63.5941 49.5766 63.4153 49.3162 63.2778 48.9991L59.6081 50.5908ZM60.9858 52.6252C61.569 53.2083 62.2458 53.6672 63.0023 53.9993L64.6102 50.3367C64.299 50.2 64.0383 50.0208 63.8142 49.7967L60.9858 52.6252ZM63.0104 54.0028C63.8118 54.3504 64.6599 54.5195 65.5348 54.5195V50.5195C65.1857 50.5195 64.8814 50.4543 64.6021 50.3331L63.0104 54.0028ZM65.5348 54.5195C66.0486 54.5195 66.5565 54.4575 67.0542 54.3306L66.0661 50.4546C65.8997 50.497 65.7241 50.5195 65.5348 50.5195V54.5195ZM67.0542 54.3306C67.5214 54.2115 67.9716 54.045 68.4018 53.8299L66.613 50.2522C66.4442 50.3365 66.263 50.4044 66.0661 50.4546L67.0542 54.3306ZM69.5074 52.041V48.0566H65.5074V52.041H69.5074ZM67.5074 50.0566H70.2125V46.0566H67.5074V50.0566ZM68.2125 48.0566V53.584H72.2125V48.0566H68.2125ZM78.2734 55V57H80.2734V55H78.2734ZM75.4707 55H73.4707V57H75.4707V55ZM75.4707 40.9961V38.9961H73.4707V40.9961H75.4707ZM78.2734 40.9961H80.2734V38.9961H78.2734V40.9961ZM78.2734 53H75.4707V57H78.2734V53ZM77.4707 55V40.9961H73.4707V55H77.4707ZM75.4707 42.9961H78.2734V38.9961H75.4707V42.9961ZM76.2734 40.9961V55H80.2734V40.9961H76.2734ZM83.4926 43.5645L81.6592 42.7653L83.4926 43.5645ZM84.391 42.2363L82.9768 40.8221L84.391 42.2363ZM93.7856 40.9961H95.7856V38.9961H93.7856V40.9961ZM93.7856 43.7988V45.7988H95.7856V43.7988H93.7856ZM86.3637 44.209L84.9495 42.7948L86.3637 44.209ZM86.0707 45.752L84.2185 46.5065L84.2236 46.5189L84.2288 46.5312L86.0707 45.752ZM86.3637 46.2012L84.9137 47.5787L84.949 47.6158L84.9862 47.6512L86.3637 46.2012ZM91.7934 46.9336L90.9942 48.767L91.0083 48.7731L91.0225 48.7791L91.7934 46.9336ZM93.1313 47.832L91.705 49.2341L91.717 49.2463L91.7292 49.2583L93.1313 47.832ZM94.0297 49.1699L92.1842 49.9408L92.1902 49.955L92.1963 49.9691L94.0297 49.1699ZM94.0297 52.4316L92.1963 51.6325L92.192 51.6424L92.1878 51.6524L94.0297 52.4316ZM93.1313 53.7695L94.5455 55.1837L93.1313 53.7695ZM91.7934 54.668L91.0027 52.8309L90.9942 52.8346L91.7934 54.668ZM83.9418 55H81.9418V57H83.9418V55ZM83.9418 52.1973V50.1973H81.9418V52.1973H83.9418ZM91.1488 51.7969L89.7346 50.3827L91.1488 51.7969ZM91.1488 49.8145L89.6988 51.192L89.7342 51.2291L89.7713 51.2645L91.1488 49.8145ZM84.391 48.1738L82.9648 49.5759L82.9768 49.5881L82.989 49.6001L84.391 48.1738ZM83.4926 46.8359L81.6555 47.6266L81.6592 47.6351L83.4926 46.8359ZM85.1606 45.1953C85.1606 44.878 85.2196 44.6078 85.326 44.3636L81.6592 42.7653C81.3229 43.5368 81.1606 44.3538 81.1606 45.1953H85.1606ZM85.326 44.3636C85.4511 44.0765 85.6112 43.8446 85.8052 43.6505L82.9768 40.8221C82.4156 41.3833 81.9768 42.0368 81.6592 42.7653L85.326 44.3636ZM85.8052 43.6505C86.0088 43.4469 86.2451 43.2849 86.5281 43.1615L84.9297 39.4947C84.1971 39.8141 83.5414 40.2575 82.9768 40.8221L85.8052 43.6505ZM86.5281 43.1615C86.7722 43.0551 87.0424 42.9961 87.3598 42.9961V38.9961C86.5182 38.9961 85.7012 39.1584 84.9297 39.4947L86.5281 43.1615ZM87.3598 42.9961H93.7856V38.9961H87.3598V42.9961ZM91.7856 40.9961V43.7988H95.7856V40.9961H91.7856ZM93.7856 41.7988H87.3598V45.7988H93.7856V41.7988ZM87.3598 41.7988C86.9138 41.7988 86.4647 41.882 86.0336 42.0643L87.5922 45.7482C87.4997 45.7873 87.4152 45.7988 87.3598 45.7988V41.7988ZM86.0336 42.0643C85.6267 42.2365 85.2614 42.4828 84.9495 42.7948L87.7779 45.6232C87.7263 45.6748 87.6606 45.7192 87.5922 45.7482L86.0336 42.0643ZM84.9495 42.7948C84.6345 43.1097 84.3956 43.4749 84.2288 43.8692L87.9126 45.4277C87.8891 45.4835 87.8455 45.5556 87.7779 45.6232L84.9495 42.7948ZM84.2288 43.8692C84.0464 44.3002 83.9633 44.7493 83.9633 45.1953H87.9633C87.9633 45.2507 87.9518 45.3352 87.9126 45.4277L84.2288 43.8692ZM83.9633 45.1953C83.9633 45.6417 84.0464 46.0842 84.2185 46.5065L87.9229 44.9974C87.9518 45.0682 87.9633 45.1396 87.9633 45.1953H83.9633ZM84.2288 46.5312C84.3918 46.9166 84.6206 47.2701 84.9137 47.5787L87.8137 44.8237C87.8594 44.8718 87.8929 44.9259 87.9126 44.9727L84.2288 46.5312ZM84.9862 47.6512C85.2947 47.9443 85.6483 48.173 86.0336 48.3361L87.5922 44.6522C87.639 44.672 87.693 44.7054 87.7412 44.7512L84.9862 47.6512ZM86.0336 48.3361C86.4647 48.5184 86.9138 48.6016 87.3598 48.6016V44.6016C87.4152 44.6016 87.4997 44.6131 87.5922 44.6522L86.0336 48.3361ZM87.3598 48.6016H90.1625V44.6016H87.3598V48.6016ZM90.1625 48.6016C90.4798 48.6016 90.75 48.6606 90.9942 48.767L92.5925 45.1002C91.8211 44.7639 91.004 44.6016 90.1625 44.6016V48.6016ZM91.0225 48.7791C91.2997 48.8949 91.5207 49.0466 91.705 49.2341L94.5575 46.43C93.9866 45.8492 93.3156 45.402 92.5643 45.0881L91.0225 48.7791ZM91.7292 49.2583C91.9167 49.4426 92.0684 49.6635 92.1842 49.9408L95.8752 48.399C95.5613 47.6477 95.114 46.9767 94.5333 46.4058L91.7292 49.2583ZM92.1963 49.9691C92.3027 50.2132 92.3617 50.4835 92.3617 50.8008H96.3617C96.3617 49.9592 96.1994 49.1422 95.8631 48.3708L92.1963 49.9691ZM92.3617 50.8008C92.3617 51.1181 92.3027 51.3883 92.1963 51.6325L95.8631 53.2308C96.1994 52.4593 96.3617 51.6423 96.3617 50.8008H92.3617ZM92.1878 51.6524C92.0717 51.9266 91.9162 52.1561 91.717 52.3553L94.5455 55.1837C95.1145 54.6147 95.558 53.9523 95.8716 53.2109L92.1878 51.6524ZM91.717 52.3553C91.5273 52.5451 91.2957 52.7048 91.0027 52.8309L92.584 56.5051C93.3196 56.1885 93.9801 55.7492 94.5455 55.1837L91.717 52.3553ZM90.9942 52.8346C90.75 52.941 90.4798 53 90.1625 53V57C91.004 57 91.8211 56.8376 92.5925 56.5014L90.9942 52.8346ZM90.1625 53H83.9418V57H90.1625V53ZM85.9418 55V52.1973H81.9418V55H85.9418ZM83.9418 54.1973H90.1625V50.1973H83.9418V54.1973ZM90.1625 54.1973C90.6085 54.1973 91.0576 54.1141 91.4887 53.9318L89.9301 50.2479C90.0226 50.2088 90.1071 50.1973 90.1625 50.1973V54.1973ZM91.4887 53.9318C91.8829 53.765 92.2481 53.5261 92.563 53.2111L89.7346 50.3827C89.8022 50.3151 89.8744 50.2715 89.9301 50.2479L91.4887 53.9318ZM92.563 53.2111C92.875 52.8991 93.1213 52.5339 93.2935 52.1269L89.6096 50.5684C89.6386 50.5 89.6831 50.4342 89.7346 50.3827L92.563 53.2111ZM93.2935 52.1269C93.4759 51.6959 93.559 51.2468 93.559 50.8008H89.559C89.559 50.7454 89.5705 50.6609 89.6096 50.5684L93.2935 52.1269ZM93.559 50.8008C93.559 50.3548 93.4759 49.9057 93.2935 49.4746L89.6096 51.0332C89.5705 50.9407 89.559 50.8562 89.559 50.8008H93.559ZM93.2935 49.4746C93.1174 49.0583 92.8605 48.6819 92.5263 48.3645L89.7713 51.2645C89.6976 51.1944 89.6425 51.1109 89.6096 51.0332L93.2935 49.4746ZM92.5988 48.437C92.2814 48.1028 91.905 47.8459 91.4887 47.6698L89.9301 51.3537C89.8523 51.3208 89.7689 51.2657 89.6988 51.192L92.5988 48.437ZM91.4887 47.6698C91.0576 47.4874 90.6085 47.4043 90.1625 47.4043V51.4043C90.1071 51.4043 90.0226 51.3928 89.9301 51.3537L91.4887 47.6698ZM90.1625 47.4043H87.3598V51.4043H90.1625V47.4043ZM87.3598 47.4043C87.0424 47.4043 86.7722 47.3453 86.5281 47.2389L84.9297 50.9057C85.7012 51.2419 86.5182 51.4043 87.3598 51.4043V47.4043ZM86.5281 47.2389C86.2379 47.1124 85.9978 46.9489 85.7931 46.7476L82.989 49.6001C83.5524 50.154 84.2043 50.5894 84.9297 50.9057L86.5281 47.2389ZM85.8173 46.7718C85.616 46.567 85.4525 46.3269 85.326 46.0368L81.6592 47.6351C81.9754 48.3606 82.4108 49.0124 82.9648 49.5759L85.8173 46.7718ZM85.3297 46.0453C85.2196 45.7894 85.1606 45.5125 85.1606 45.1953H81.1606C81.1606 46.0369 81.3229 46.8538 81.6555 47.6266L85.3297 46.0453ZM104.991 55V57H106.991V55H104.991ZM102.198 55H100.198V57H102.198V55ZM102.198 43.7988H104.198V41.7988H102.198V43.7988ZM97.9891 43.7988H95.9891V45.7988H97.9891V43.7988ZM97.9891 40.9961V38.9961H95.9891V40.9961H97.9891ZM109.19 40.9961H111.19V38.9961H109.19V40.9961ZM109.19 43.7988V45.7988H111.19V43.7988H109.19ZM104.991 43.7988V41.7988H102.991V43.7988H104.991ZM104.991 53H102.198V57H104.991V53ZM104.198 55V43.7988H100.198V55H104.198ZM102.198 41.7988H97.9891V45.7988H102.198V41.7988ZM99.9891 43.7988V40.9961H95.9891V43.7988H99.9891ZM97.9891 42.9961H109.19V38.9961H97.9891V42.9961ZM107.19 40.9961V43.7988H111.19V40.9961H107.19ZM109.19 41.7988H104.991V45.7988H109.19V41.7988ZM102.991 43.7988V55H106.991V43.7988H102.991ZM116.577 55V57H118.577V55H116.577ZM113.775 55H111.775V57H113.775V55ZM113.775 40.9961V38.9961H111.775V40.9961H113.775ZM116.577 40.9961H118.577V38.9961H116.577V40.9961ZM116.577 53H113.775V57H116.577V53ZM115.775 55V40.9961H111.775V55H115.775ZM113.775 42.9961H116.577V38.9961H113.775V42.9961ZM114.577 40.9961V55H118.577V40.9961H114.577ZM133.466 53.5645L134.77 55.0808L136.057 53.9748L135.175 52.5254L133.466 53.5645ZM131.279 54.8535L130.583 52.9784L131.279 54.8535ZM126.845 55.0391L127.392 53.1152L127.378 53.1114L126.845 55.0391ZM125.117 54.3164L124.091 56.0332L124.103 56.0406L124.116 56.0477L125.117 54.3164ZM122.509 51.709L120.778 52.7102L120.785 52.7226L120.793 52.7349L122.509 51.709ZM121.777 49.9805L119.848 50.5084L119.851 50.5205L119.855 50.5326L121.777 49.9805ZM121.777 46.1328L119.853 45.586L119.85 45.5954L119.848 45.6049L121.777 46.1328ZM122.509 44.4043L120.787 43.3875L120.783 43.3939L122.509 44.4043ZM125.117 41.7969L126.127 43.5229L126.134 43.5191L125.117 41.7969ZM126.845 41.0645L127.378 42.9921L127.392 42.9883L126.845 41.0645ZM131.279 41.25L130.583 43.1251L130.59 43.1276L130.597 43.13L131.279 41.25ZM133.466 42.5391L135.175 43.5781L136.051 42.1371L134.779 41.0302L133.466 42.5391ZM131.982 44.9805L130.515 46.3397L132.315 48.2826L133.691 46.0195L131.982 44.9805ZM130.527 43.9648L129.737 45.802L129.746 45.8059L129.755 45.8097L130.527 43.9648ZM125.615 44.9121L127.018 46.3378L127.023 46.3321L127.029 46.3263L125.615 44.9121ZM124.658 46.3281L126.493 47.124L126.496 47.116L124.658 46.3281ZM124.658 49.7852L122.823 50.581L122.827 50.5891L124.658 49.7852ZM125.615 51.1914L124.201 52.6056L125.615 51.1914ZM130.527 52.1484L131.299 53.9933L131.308 53.9895L131.317 53.9856L130.527 52.1484ZM131.982 51.123L133.691 50.084L132.315 47.8209L130.515 49.7638L131.982 51.123ZM132.162 52.0481C131.692 52.4528 131.169 52.7612 130.583 52.9784L131.975 56.7286C133.004 56.3469 133.939 55.7959 134.77 55.0808L132.162 52.0481ZM130.583 52.9784C130 53.1948 129.399 53.3027 128.769 53.3027V57.3027C129.871 57.3027 130.943 57.1112 131.975 56.7286L130.583 52.9784ZM128.769 53.3027C128.284 53.3027 127.827 53.2388 127.392 53.1152L126.299 56.9629C127.101 57.1908 127.926 57.3027 128.769 57.3027V53.3027ZM127.378 53.1114C126.927 52.9867 126.509 52.8111 126.118 52.5851L124.116 56.0477C124.805 56.4467 125.539 56.7529 126.312 56.9667L127.378 53.1114ZM126.143 52.5996C125.751 52.3656 125.393 52.0866 125.066 51.7596L122.238 54.588C122.796 55.1464 123.415 55.6292 124.091 56.0332L126.143 52.5996ZM125.066 51.7596C124.739 51.4326 124.46 51.0746 124.226 50.6831L120.793 52.7349C121.197 53.4111 121.679 54.0296 122.238 54.588L125.066 51.7596ZM124.241 50.7077C124.012 50.3115 123.831 49.8865 123.699 49.4283L119.855 50.5326C120.075 51.2984 120.382 52.0257 120.778 52.7102L124.241 50.7077ZM123.706 49.4525C123.585 49.0121 123.523 48.5487 123.523 48.0566H119.523C119.523 48.8927 119.63 49.7119 119.848 50.5084L123.706 49.4525ZM123.523 48.0566C123.523 47.5646 123.585 47.1012 123.706 46.6608L119.848 45.6049C119.63 46.4014 119.523 47.2206 119.523 48.0566H123.523ZM123.701 46.6796C123.832 46.2169 124.011 45.7973 124.235 45.4147L120.783 43.3939C120.382 44.079 120.073 44.8117 119.853 45.586L123.701 46.6796ZM124.232 45.4211C124.465 45.0253 124.743 44.6673 125.066 44.3439L122.238 41.5155C121.676 42.0775 121.191 42.7026 120.787 43.3875L124.232 45.4211ZM125.066 44.3439C125.39 44.0205 125.742 43.7481 126.127 43.5229L124.106 40.0708C123.423 40.4707 122.8 40.9535 122.238 41.5155L125.066 44.3439ZM126.134 43.5191C126.521 43.2906 126.934 43.115 127.378 42.9921L126.312 39.1368C125.533 39.3524 124.794 39.6651 124.1 40.0746L126.134 43.5191ZM127.392 42.9883C127.827 42.8647 128.284 42.8008 128.769 42.8008V38.8008C127.926 38.8008 127.101 38.9127 126.299 39.1406L127.392 42.9883ZM128.769 42.8008C129.399 42.8008 130 42.9087 130.583 43.1251L131.975 39.3749C130.943 38.9923 129.871 38.8008 128.769 38.8008V42.8008ZM130.597 43.13C131.172 43.3387 131.687 43.6422 132.154 44.0479L134.779 41.0302C133.943 40.3031 133.001 39.7472 131.961 39.37L130.597 43.13ZM131.757 41.5L130.273 43.9414L133.691 46.0195L135.175 43.5781L131.757 41.5ZM133.449 43.6212C132.844 42.9676 132.121 42.4641 131.299 42.12L129.755 45.8097C130.052 45.9344 130.3 46.1079 130.515 46.3397L133.449 43.6212ZM131.317 42.1277C130.507 41.7789 129.652 41.6035 128.769 41.6035V45.6035C129.11 45.6035 129.427 45.669 129.737 45.802L131.317 42.1277ZM128.769 41.6035C127.891 41.6035 127.039 41.7715 126.235 42.1202L127.827 45.7899C128.103 45.6699 128.41 45.6035 128.769 45.6035V41.6035ZM126.235 42.1202C125.471 42.4514 124.788 42.9107 124.201 43.4979L127.029 46.3263C127.249 46.1062 127.51 45.9275 127.827 45.7899L126.235 42.1202ZM124.212 43.4864C123.614 44.075 123.151 44.7668 122.82 45.5403L126.496 47.116C126.633 46.7957 126.808 46.5435 127.018 46.3378L124.212 43.4864ZM122.823 45.5323C122.475 46.3337 122.306 47.1818 122.306 48.0566H126.306C126.306 47.7075 126.371 47.4033 126.493 47.124L122.823 45.5323ZM122.306 48.0566C122.306 48.9315 122.475 49.7796 122.823 50.581L126.493 48.9893C126.371 48.71 126.306 48.4058 126.306 48.0566H122.306ZM122.827 50.5891C123.159 51.3456 123.617 52.0225 124.201 52.6056L127.029 49.7772C126.805 49.5531 126.626 49.2924 126.489 48.9812L122.827 50.5891ZM124.201 52.6056C124.788 53.1928 125.471 53.6521 126.235 53.9833L127.827 50.3136C127.51 50.1761 127.249 49.9973 127.029 49.7772L124.201 52.6056ZM126.235 53.9833C127.039 54.332 127.891 54.5 128.769 54.5V50.5C128.41 50.5 128.103 50.4336 127.827 50.3136L126.235 53.9833ZM128.769 54.5C129.644 54.5 130.493 54.3309 131.299 53.9933L129.755 50.3036C129.441 50.4347 129.118 50.5 128.769 50.5V54.5ZM131.317 53.9856C132.131 53.6355 132.847 53.1319 133.449 52.4823L130.515 49.7638C130.296 49.9996 130.043 50.1796 129.737 50.3113L131.317 53.9856ZM130.273 52.1621L131.757 54.6035L135.175 52.5254L133.691 50.084L130.273 52.1621Z" fill="#C8A35F"/>
</g>
<defs>
<filter id="filter0_d_135_3" x="0.855713" y="0.28125" width="152.676" height="63.0215" filterUnits="userSpaceOnUse" color-interpolation-filters="sRGB">
<feFlood flood-opacity="0" result="BackgroundImageFix"/>
<feColorMatrix in="SourceAlpha" type="matrix" values="0 0 0 0 0 0 0 0 0 0 0 0 0 0 0 0 0 0 127 0" result="hardAlpha"/>
<feOffset dy="4"/>
<feGaussianBlur stdDeviation="2"/>
<feComposite in2="hardAlpha" operator="out"/>
<feColorMatrix type="matrix" values="0 0 0 0 0 0 0 0 0 0 0 0 0 0 0 0 0 0 0.25 0"/>
<feBlend mode="normal" in2="BackgroundImageFix" result="effect1_dropShadow_135_3"/>
<feBlend mode="normal" in="SourceGraphic" in2="effect1_dropShadow_135_3" result="shape"/>
</filter>
</defs>
</svg>
