<svg width="228" height="65" viewBox="0 0 228 65" fill="none" xmlns="http://www.w3.org/2000/svg">
<g filter="url(#filter0_d_104_83)">
<rect x="4.5" y="0.5" width="219" height="55.8966" fill="#C8A35F" stroke="black"/>
<path d="M69.0187 23.625V35H67.0656V25.1875H62.0109V35H60.0578V23.625H69.0187ZM82.0484 29V29.625C82.0484 30.4844 81.9365 31.2552 81.7125 31.9375C81.4885 32.6198 81.1682 33.2005 80.7516 33.6797C80.3401 34.1589 79.8453 34.526 79.2672 34.7812C78.6891 35.0312 78.0484 35.1562 77.3453 35.1562C76.6474 35.1562 76.0094 35.0312 75.4312 34.7812C74.8583 34.526 74.3609 34.1589 73.9391 33.6797C73.5172 33.2005 73.1891 32.6198 72.9547 31.9375C72.7255 31.2552 72.6109 30.4844 72.6109 29.625V29C72.6109 28.1406 72.7255 27.3724 72.9547 26.6953C73.1839 26.013 73.5068 25.4323 73.9234 24.9531C74.3453 24.4688 74.8427 24.1016 75.4156 23.8516C75.9937 23.5964 76.6318 23.4688 77.3297 23.4688C78.0328 23.4688 78.6734 23.5964 79.2516 23.8516C79.8297 24.1016 80.3271 24.4688 80.7437 24.9531C81.1604 25.4323 81.4807 26.013 81.7047 26.6953C81.9339 27.3724 82.0484 28.1406 82.0484 29ZM80.0875 29.625V28.9844C80.0875 28.349 80.025 27.7891 79.9 27.3047C79.7802 26.8151 79.6005 26.4062 79.3609 26.0781C79.1266 25.7448 78.8375 25.4948 78.4937 25.3281C78.15 25.1562 77.762 25.0703 77.3297 25.0703C76.8974 25.0703 76.512 25.1562 76.1734 25.3281C75.8349 25.4948 75.5458 25.7448 75.3062 26.0781C75.0719 26.4062 74.8922 26.8151 74.7672 27.3047C74.6422 27.7891 74.5797 28.349 74.5797 28.9844V29.625C74.5797 30.2604 74.6422 30.8229 74.7672 31.3125C74.8922 31.8021 75.0745 32.2161 75.3141 32.5547C75.5589 32.888 75.8505 33.1406 76.1891 33.3125C76.5276 33.4792 76.913 33.5625 77.3453 33.5625C77.7828 33.5625 78.1708 33.4792 78.5094 33.3125C78.8479 33.1406 79.1344 32.888 79.3687 32.5547C79.6031 32.2161 79.7802 31.8021 79.9 31.3125C80.025 30.8229 80.0875 30.2604 80.0875 29.625ZM94.3281 33.4453V35H85.9453V33.4453H94.3281ZM86.4297 33.4453V37.7969H84.5547L84.4844 33.4453H86.4297ZM95.8438 33.4453L95.7266 37.7891H93.8828V33.4453H95.8438ZM92.9531 23.625V25.1875H87.7031V23.625H92.9531ZM94.4531 23.625V35H92.5V23.625H94.4531ZM87.3125 23.625H89.2734L89 28.2344C88.9583 28.9635 88.8828 29.6198 88.7734 30.2031C88.6641 30.7865 88.5312 31.3099 88.375 31.7734C88.224 32.2318 88.0521 32.638 87.8594 32.9922C87.6667 33.3411 87.4609 33.6432 87.2422 33.8984C87.0234 34.1536 86.7995 34.3724 86.5703 34.5547C86.3464 34.7318 86.125 34.8802 85.9062 35H84.8594V33.4453H85.3672C85.5078 33.3151 85.6641 33.1276 85.8359 32.8828C86.0078 32.6328 86.1745 32.3073 86.3359 31.9062C86.5026 31.5 86.6484 30.9974 86.7734 30.3984C86.8984 29.7995 86.9844 29.0781 87.0312 28.2344L87.3125 23.625ZM103.248 30.7578H100.287V29.2031H103.248C103.764 29.2031 104.181 29.1198 104.498 28.9531C104.816 28.7865 105.048 28.5573 105.194 28.2656C105.345 27.9688 105.42 27.6302 105.42 27.25C105.42 26.8906 105.345 26.5547 105.194 26.2422C105.048 25.9245 104.816 25.6693 104.498 25.4766C104.181 25.2839 103.764 25.1875 103.248 25.1875H100.889V35H98.9281V23.625H103.248C104.129 23.625 104.876 23.7812 105.491 24.0938C106.11 24.401 106.582 24.8281 106.905 25.375C107.228 25.9167 107.389 26.5365 107.389 27.2344C107.389 27.9688 107.228 28.599 106.905 29.125C106.582 29.651 106.11 30.0547 105.491 30.3359C104.876 30.6172 104.129 30.7578 103.248 30.7578ZM119.817 29V29.625C119.817 30.4844 119.705 31.2552 119.481 31.9375C119.257 32.6198 118.937 33.2005 118.52 33.6797C118.109 34.1589 117.614 34.526 117.036 34.7812C116.458 35.0312 115.817 35.1562 115.114 35.1562C114.416 35.1562 113.778 35.0312 113.2 34.7812C112.627 34.526 112.13 34.1589 111.708 33.6797C111.286 33.2005 110.958 32.6198 110.723 31.9375C110.494 31.2552 110.38 30.4844 110.38 29.625V29C110.38 28.1406 110.494 27.3724 110.723 26.6953C110.953 26.013 111.276 25.4323 111.692 24.9531C112.114 24.4688 112.611 24.1016 113.184 23.8516C113.763 23.5964 114.401 23.4688 115.098 23.4688C115.802 23.4688 116.442 23.5964 117.02 23.8516C117.598 24.1016 118.096 24.4688 118.513 24.9531C118.929 25.4323 119.249 26.013 119.473 26.6953C119.703 27.3724 119.817 28.1406 119.817 29ZM117.856 29.625V28.9844C117.856 28.349 117.794 27.7891 117.669 27.3047C117.549 26.8151 117.369 26.4062 117.13 26.0781C116.895 25.7448 116.606 25.4948 116.263 25.3281C115.919 25.1562 115.531 25.0703 115.098 25.0703C114.666 25.0703 114.281 25.1562 113.942 25.3281C113.604 25.4948 113.315 25.7448 113.075 26.0781C112.841 26.4062 112.661 26.8151 112.536 27.3047C112.411 27.7891 112.348 28.349 112.348 28.9844V29.625C112.348 30.2604 112.411 30.8229 112.536 31.3125C112.661 31.8021 112.843 32.2161 113.083 32.5547C113.328 32.888 113.619 33.1406 113.958 33.3125C114.296 33.4792 114.682 33.5625 115.114 33.5625C115.552 33.5625 115.94 33.4792 116.278 33.3125C116.617 33.1406 116.903 32.888 117.138 32.5547C117.372 32.2161 117.549 31.8021 117.669 31.3125C117.794 30.8229 117.856 30.2604 117.856 29.625ZM130.589 23.625V25.1875H125.3V35H123.347V23.625H130.589ZM124.706 27.9922H127.566C128.43 27.9922 129.17 28.138 129.784 28.4297C130.399 28.7161 130.868 29.1198 131.191 29.6406C131.514 30.1615 131.675 30.7682 131.675 31.4609C131.675 31.9818 131.584 32.4583 131.402 32.8906C131.219 33.3229 130.951 33.6979 130.597 34.0156C130.243 34.3281 129.81 34.5703 129.3 34.7422C128.795 34.9141 128.217 35 127.566 35H123.347V23.625H125.316V33.4453H127.566C128.06 33.4453 128.467 33.3542 128.784 33.1719C129.102 32.9844 129.336 32.7396 129.488 32.4375C129.644 32.1354 129.722 31.8047 129.722 31.4453C129.722 31.0964 129.644 30.7786 129.488 30.4922C129.336 30.2057 129.102 29.9766 128.784 29.8047C128.467 29.6328 128.06 29.5469 127.566 29.5469H124.706V27.9922ZM142.556 28.375V29.9297H136.517V28.375H142.556ZM137.002 23.625V35H135.041V23.625H137.002ZM144.064 23.625V35H142.111V23.625H144.064ZM155.445 33.4453V35H149.406V33.4453H155.445ZM149.961 23.625V35H148V23.625H149.961ZM154.656 28.375V29.9062H149.406V28.375H154.656ZM155.406 23.625V25.1875H149.406V23.625H155.406ZM166.092 33.4453V35H160.053V33.4453H166.092ZM160.608 23.625V35H158.647V23.625H160.608ZM165.303 28.375V29.9062H160.053V28.375H165.303ZM166.053 23.625V25.1875H160.053V23.625H166.053Z" fill="white"/>
<path d="M69.0187 23.625H70.0187V22.625H69.0187V23.625ZM69.0187 35V36H70.0187V35H69.0187ZM67.0656 35H66.0656V36H67.0656V35ZM67.0656 25.1875H68.0656V24.1875H67.0656V25.1875ZM62.0109 25.1875V24.1875H61.0109V25.1875H62.0109ZM62.0109 35V36H63.0109V35H62.0109ZM60.0578 35H59.0578V36H60.0578V35ZM60.0578 23.625V22.625H59.0578V23.625H60.0578ZM68.0187 23.625V35H70.0187V23.625H68.0187ZM69.0187 34H67.0656V36H69.0187V34ZM68.0656 35V25.1875H66.0656V35H68.0656ZM67.0656 24.1875H62.0109V26.1875H67.0656V24.1875ZM61.0109 25.1875V35H63.0109V25.1875H61.0109ZM62.0109 34H60.0578V36H62.0109V34ZM61.0578 35V23.625H59.0578V35H61.0578ZM60.0578 24.625H69.0187V22.625H60.0578V24.625ZM80.7516 33.6797L79.9969 33.0235L79.9929 33.0282L80.7516 33.6797ZM79.2672 34.7812L79.6641 35.6991L79.671 35.6961L79.2672 34.7812ZM75.4312 34.7812L75.0243 35.6948L75.0343 35.6991L75.4312 34.7812ZM73.9391 33.6797L73.1885 34.3405L73.9391 33.6797ZM72.9547 31.9375L72.0067 32.2559L72.0089 32.2624L72.9547 31.9375ZM72.9547 26.6953L73.9019 27.0159L73.9026 27.0137L72.9547 26.6953ZM73.9234 24.9531L73.1694 24.2963L73.1688 24.2969L73.9234 24.9531ZM75.4156 23.8516L75.8156 24.7681L75.8195 24.7664L75.4156 23.8516ZM79.2516 23.8516L78.8477 24.7664L78.8547 24.7694L79.2516 23.8516ZM80.7437 24.9531L79.9856 25.6053L79.9891 25.6093L80.7437 24.9531ZM81.7047 26.6953L80.7545 27.0072L80.7575 27.0159L81.7047 26.6953ZM79.9 27.3047L78.9286 27.5424L78.9317 27.5546L79.9 27.3047ZM79.3609 26.0781L78.5429 26.6533L78.548 26.6606L78.5533 26.6678L79.3609 26.0781ZM78.4937 25.3281L78.0465 26.2226L78.0575 26.2279L78.4937 25.3281ZM76.1734 25.3281L76.6152 26.2254L76.6261 26.2198L76.1734 25.3281ZM75.3062 26.0781L74.4942 25.4945L74.4925 25.4969L75.3062 26.0781ZM74.7672 27.3047L75.7355 27.5546L75.7361 27.5521L74.7672 27.3047ZM75.3141 32.5547L74.4978 33.1324L74.5029 33.1395L74.5081 33.1466L75.3141 32.5547ZM76.1891 33.3125L75.7363 34.2042L75.7474 34.2097L76.1891 33.3125ZM78.5094 33.3125L78.9511 34.2097L78.9621 34.2042L78.5094 33.3125ZM79.3687 32.5547L80.1868 33.1299L80.1909 33.1239L79.3687 32.5547ZM79.9 31.3125L78.931 31.0651L78.9287 31.0748L79.9 31.3125ZM81.0484 29V29.625H83.0484V29H81.0484ZM81.0484 29.625C81.0484 30.3986 80.9475 31.0615 80.7624 31.6256L82.6626 32.2494C82.9254 31.4489 83.0484 30.5701 83.0484 29.625H81.0484ZM80.7624 31.6256C80.5746 32.1978 80.3154 32.6573 79.997 33.0235L81.5062 34.3359C82.021 33.7438 82.4025 33.0418 82.6626 32.2494L80.7624 31.6256ZM79.9929 33.0282C79.6786 33.3942 79.3051 33.6714 78.8633 33.8664L79.671 35.6961C80.3855 35.3807 81.0016 34.9235 81.5102 34.3312L79.9929 33.0282ZM78.8703 33.8634C78.4313 34.0532 77.9278 34.1562 77.3453 34.1562V36.1562C78.1691 36.1562 78.9468 36.0093 79.6641 35.6991L78.8703 33.8634ZM77.3453 34.1562C76.7691 34.1562 76.2681 34.0536 75.8282 33.8634L75.0343 35.6991C75.7507 36.0089 76.5257 36.1562 77.3453 36.1562V34.1562ZM75.8382 33.8678C75.399 33.6722 75.0182 33.3921 74.6896 33.0189L73.1885 34.3405C73.7037 34.9256 74.3176 35.3799 75.0243 35.6947L75.8382 33.8678ZM74.6896 33.0189C74.3647 32.6498 74.0978 32.1873 73.9004 31.6126L72.0089 32.2624C72.2803 33.0523 72.6697 33.7512 73.1885 34.3405L74.6896 33.0189ZM73.9026 31.6191C73.7139 31.0571 73.6109 30.3965 73.6109 29.625H71.6109C71.6109 30.5722 71.7372 31.4533 72.0067 32.2559L73.9026 31.6191ZM73.6109 29.625V29H71.6109V29.625H73.6109ZM73.6109 29C73.6109 28.2283 73.7139 27.5713 73.9019 27.0159L72.0075 26.3747C71.7371 27.1735 71.6109 28.053 71.6109 29H73.6109ZM73.9026 27.0137C74.0956 26.4391 74.3581 25.9773 74.678 25.6093L73.1688 24.2969C72.6555 24.8873 72.2721 25.5869 72.0067 26.3769L73.9026 27.0137ZM74.6775 25.6099C75.0048 25.2341 75.3823 24.9572 75.8156 24.7681L75.0157 22.935C74.3031 23.246 73.6858 23.7034 73.1694 24.2963L74.6775 25.6099ZM75.8195 24.7664C76.2576 24.573 76.7562 24.4688 77.3297 24.4688V22.4688C76.5073 22.4688 75.7299 22.6197 75.0118 22.9367L75.8195 24.7664ZM77.3297 24.4688C77.9095 24.4688 78.4105 24.5734 78.8477 24.7664L79.6554 22.9367C78.9364 22.6193 78.1562 22.4688 77.3297 22.4688V24.4688ZM78.8547 24.7694C79.2918 24.9584 79.6662 25.2339 79.9856 25.6053L81.5019 24.301C80.9879 23.7036 80.3676 23.2447 79.6485 22.9337L78.8547 24.7694ZM79.9891 25.6093C80.3076 25.9755 80.5668 26.435 80.7546 27.0072L82.6548 26.3834C82.3947 25.591 82.0132 24.889 81.4984 24.2969L79.9891 25.6093ZM80.7575 27.0159C80.9454 27.5713 81.0484 28.2283 81.0484 29H83.0484C83.0484 28.053 82.9223 27.1735 82.6519 26.3747L80.7575 27.0159ZM81.0875 29.625V28.9844H79.0875V29.625H81.0875ZM81.0875 28.9844C81.0875 28.2862 81.0191 27.6393 80.8683 27.0548L78.9317 27.5546C79.0309 27.9388 79.0875 28.4117 79.0875 28.9844H81.0875ZM80.8713 27.067C80.7277 26.4801 80.5013 25.9441 80.1686 25.4884L78.5533 26.6678C78.6997 26.8684 78.8327 27.1501 78.9287 27.5424L80.8713 27.067ZM80.179 25.5029C79.8537 25.0403 79.4367 24.674 78.93 24.4283L78.0575 26.2279C78.2383 26.3156 78.3995 26.4493 78.5429 26.6533L80.179 25.5029ZM78.941 24.4337C78.4419 24.1841 77.8977 24.0703 77.3297 24.0703V26.0703C77.6263 26.0703 77.8581 26.1284 78.0465 26.2226L78.941 24.4337ZM77.3297 24.0703C76.762 24.0703 76.2179 24.1841 75.7207 24.4365L76.6261 26.2198C76.8061 26.1284 77.0328 26.0703 77.3297 26.0703V24.0703ZM75.7318 24.431C75.2332 24.6764 74.821 25.0398 74.4942 25.4945L76.1183 26.6618C76.2706 26.4498 76.4366 26.3132 76.6151 26.2253L75.7318 24.431ZM74.4925 25.4969C74.1705 25.9476 73.9464 26.477 73.7983 27.0573L75.7361 27.5521C75.8379 27.1532 75.9732 26.8649 76.12 26.6594L74.4925 25.4969ZM73.7989 27.0548C73.6481 27.6393 73.5797 28.2862 73.5797 28.9844H75.5797C75.5797 28.4117 75.6363 27.9388 75.7355 27.5546L73.7989 27.0548ZM73.5797 28.9844V29.625H75.5797V28.9844H73.5797ZM73.5797 29.625C73.5797 30.3235 73.6481 30.9719 73.7983 31.5599L75.7361 31.0651C75.6362 30.674 75.5797 30.1973 75.5797 29.625H73.5797ZM73.7983 31.5599C73.9471 32.1429 74.174 32.6748 74.4978 33.1324L76.1303 31.977C75.975 31.7575 75.8373 31.4613 75.7361 31.0651L73.7983 31.5599ZM74.5081 33.1466C74.8371 33.5947 75.246 33.9552 75.7364 34.2042L76.6418 32.4208C76.455 32.326 76.2806 32.1814 76.1201 31.9628L74.5081 33.1466ZM75.7474 34.2097C76.2421 34.4532 76.7822 34.5625 77.3453 34.5625V32.5625C77.0438 32.5625 76.8131 32.5051 76.6307 32.4153L75.7474 34.2097ZM77.3453 34.5625C77.9116 34.5625 78.4548 34.454 78.9511 34.2097L78.0677 32.4153C77.8869 32.5043 77.654 32.5625 77.3453 32.5625V34.5625ZM78.9621 34.2042C79.457 33.9529 79.8654 33.5869 80.1868 33.1299L78.5507 31.9795C78.4033 32.1891 78.2388 32.3284 78.0567 32.4208L78.9621 34.2042ZM80.1909 33.1239C80.5085 32.6652 80.7288 32.1327 80.8713 31.5502L78.9287 31.0748C78.8316 31.4715 78.6977 31.7671 78.5466 31.9855L80.1909 33.1239ZM80.8689 31.5599C81.0191 30.9719 81.0875 30.3235 81.0875 29.625H79.0875C79.0875 30.1973 79.0309 30.674 78.9311 31.0651L80.8689 31.5599ZM94.3281 33.4453H95.3281V32.4453H94.3281V33.4453ZM94.3281 35V36H95.3281V35H94.3281ZM85.9453 35H84.9453V36H85.9453V35ZM85.9453 33.4453V32.4453H84.9453V33.4453H85.9453ZM86.4297 33.4453H87.4297V32.4453H86.4297V33.4453ZM86.4297 37.7969V38.7969H87.4297V37.7969H86.4297ZM84.5547 37.7969L83.5548 37.813L83.5707 38.7969H84.5547V37.7969ZM84.4844 33.4453V32.4453H83.4681L83.4845 33.4615L84.4844 33.4453ZM95.8438 33.4453L96.8434 33.4723L96.8711 32.4453H95.8438V33.4453ZM95.7266 37.7891V38.7891H96.6999L96.7262 37.816L95.7266 37.7891ZM93.8828 37.7891H92.8828V38.7891H93.8828V37.7891ZM93.8828 33.4453V32.4453H92.8828V33.4453H93.8828ZM92.9531 23.625H93.9531V22.625H92.9531V23.625ZM92.9531 25.1875V26.1875H93.9531V25.1875H92.9531ZM87.7031 25.1875H86.7031V26.1875H87.7031V25.1875ZM87.7031 23.625V22.625H86.7031V23.625H87.7031ZM94.4531 23.625H95.4531V22.625H94.4531V23.625ZM94.4531 35V36H95.4531V35H94.4531ZM92.5 35H91.5V36H92.5V35ZM92.5 23.625V22.625H91.5V23.625H92.5ZM87.3125 23.625V22.625H86.3717L86.3144 23.5641L87.3125 23.625ZM89.2734 23.625L90.2717 23.6842L90.3345 22.625H89.2734V23.625ZM89 28.2344L88.0018 28.1752L88.0016 28.1773L89 28.2344ZM88.375 31.7734L87.4274 31.454L87.4252 31.4604L88.375 31.7734ZM87.8594 32.9922L88.7348 33.4756L88.7378 33.4701L87.8594 32.9922ZM86.5703 34.5547L87.1906 35.3391L87.1928 35.3373L86.5703 34.5547ZM85.9062 35V36H86.1621L86.3866 35.8771L85.9062 35ZM84.8594 35H83.8594V36H84.8594V35ZM84.8594 33.4453V32.4453H83.8594V33.4453H84.8594ZM85.3672 33.4453V34.4453H85.7591L86.0466 34.1791L85.3672 33.4453ZM85.8359 32.8828L86.6544 33.4575L86.66 33.4493L85.8359 32.8828ZM86.3359 31.9062L85.4107 31.5267L85.4083 31.5328L86.3359 31.9062ZM87.0312 28.2344L86.0331 28.1735L86.0328 28.1789L87.0312 28.2344ZM93.3281 33.4453V35H95.3281V33.4453H93.3281ZM94.3281 34H85.9453V36H94.3281V34ZM86.9453 35V33.4453H84.9453V35H86.9453ZM85.9453 34.4453H94.3281V32.4453H85.9453V34.4453ZM85.4297 33.4453V37.7969H87.4297V33.4453H85.4297ZM86.4297 36.7969H84.5547V38.7969H86.4297V36.7969ZM85.5546 37.7807L85.4842 33.4292L83.4845 33.4615L83.5548 37.813L85.5546 37.7807ZM84.4844 34.4453H86.4297V32.4453H84.4844V34.4453ZM94.8441 33.4183L94.7269 37.7621L96.7262 37.816L96.8434 33.4723L94.8441 33.4183ZM95.7266 36.7891H93.8828V38.7891H95.7266V36.7891ZM94.8828 37.7891V33.4453H92.8828V37.7891H94.8828ZM93.8828 34.4453H95.8438V32.4453H93.8828V34.4453ZM91.9531 23.625V25.1875H93.9531V23.625H91.9531ZM92.9531 24.1875H87.7031V26.1875H92.9531V24.1875ZM88.7031 25.1875V23.625H86.7031V25.1875H88.7031ZM87.7031 24.625H92.9531V22.625H87.7031V24.625ZM93.4531 23.625V35H95.4531V23.625H93.4531ZM94.4531 34H92.5V36H94.4531V34ZM93.5 35V23.625H91.5V35H93.5ZM92.5 24.625H94.4531V22.625H92.5V24.625ZM87.3125 24.625H89.2734V22.625H87.3125V24.625ZM88.2752 23.5658L88.0018 28.1752L89.9982 28.2936L90.2717 23.6842L88.2752 23.5658ZM88.0016 28.1773C87.9619 28.8731 87.8905 29.4858 87.7906 30.0188L89.7563 30.3874C89.8751 29.7538 89.9548 29.054 89.9984 28.2914L88.0016 28.1773ZM87.7906 30.0188C87.688 30.5656 87.566 31.0428 87.4274 31.454L89.3226 32.0929C89.4965 31.577 89.6401 31.0073 89.7563 30.3874L87.7906 30.0188ZM87.4252 31.4604C87.2895 31.8725 87.1401 32.2219 86.981 32.5142L88.7378 33.4701C88.9641 33.0542 89.1585 32.591 89.3248 32.0864L87.4252 31.4604ZM86.984 32.5088C86.8183 32.8088 86.6501 33.0526 86.4829 33.2476L88.0014 34.5492C88.2718 34.2338 88.515 33.8735 88.7348 33.4756L86.984 32.5088ZM86.4829 33.2476C86.2996 33.4616 86.1207 33.6346 85.9478 33.7721L87.1928 35.3373C87.4783 35.1102 87.7473 34.8457 88.0014 34.5492L86.4829 33.2476ZM85.9501 33.7703C85.7639 33.9175 85.5891 34.0336 85.4259 34.1229L86.3866 35.8771C86.6609 35.7269 86.9288 35.5461 87.1905 35.3391L85.9501 33.7703ZM85.9062 34H84.8594V36H85.9062V34ZM85.8594 35V33.4453H83.8594V35H85.8594ZM84.8594 34.4453H85.3672V32.4453H84.8594V34.4453ZM86.0466 34.1791C86.2594 33.982 86.4618 33.7317 86.6544 33.4574L85.0175 32.3082C84.8664 32.5235 84.7562 32.6482 84.6878 32.7116L86.0466 34.1791ZM86.66 33.4493C86.8867 33.1195 87.0853 32.7226 87.2636 32.2797L85.4083 31.5328C85.2637 31.892 85.1289 32.1461 85.0119 32.3163L86.66 33.4493ZM87.2611 32.2858C87.4581 31.8057 87.6193 31.2402 87.7523 30.6027L85.7945 30.1941C85.6776 30.7546 85.5471 31.1943 85.4108 31.5267L87.2611 32.2858ZM87.7523 30.6027C87.8906 29.9402 87.981 29.1663 88.0297 28.2898L86.0328 28.1789C85.9877 28.99 85.9063 29.6587 85.7945 30.1941L87.7523 30.6027ZM88.0294 28.2953L88.3106 23.6859L86.3144 23.5641L86.0331 28.1735L88.0294 28.2953ZM100.287 30.7578H99.2875V31.7578H100.287V30.7578ZM100.287 29.2031V28.2031H99.2875V29.2031H100.287ZM105.194 28.2656L104.302 27.8122L104.299 27.8184L105.194 28.2656ZM105.194 26.2422L104.285 26.6594L104.289 26.6684L104.293 26.6774L105.194 26.2422ZM100.889 25.1875V24.1875H99.8891V25.1875H100.889ZM100.889 35V36H101.889V35H100.889ZM98.9281 35H97.9281V36H98.9281V35ZM98.9281 23.625V22.625H97.9281V23.625H98.9281ZM105.491 24.0938L105.037 24.9852L105.046 24.9897L105.491 24.0938ZM106.905 25.375L106.044 25.8835L106.046 25.8871L106.905 25.375ZM105.491 30.3359L105.077 29.4253L105.075 29.4266L105.491 30.3359ZM103.248 29.7578H100.287V31.7578H103.248V29.7578ZM101.287 30.7578V29.2031H99.2875V30.7578H101.287ZM100.287 30.2031H103.248V28.2031H100.287V30.2031ZM103.248 30.2031C103.86 30.2031 104.453 30.1062 104.963 29.8387L104.034 28.0676C103.908 28.1334 103.668 28.2031 103.248 28.2031V30.2031ZM104.963 29.8387C105.447 29.5848 105.839 29.2109 106.088 28.7128L104.299 27.8184C104.257 27.9037 104.185 27.9881 104.034 28.0676L104.963 29.8387ZM106.085 28.7191C106.317 28.263 106.42 27.7654 106.42 27.25H104.42C104.42 27.495 104.373 27.6745 104.302 27.8122L106.085 28.7191ZM106.42 27.25C106.42 26.7454 106.313 26.2601 106.094 25.807L104.293 26.6774C104.377 26.8493 104.42 27.0358 104.42 27.25H106.42ZM106.103 25.825C105.868 25.314 105.494 24.9111 105.017 24.6216L103.98 26.3316C104.138 26.4275 104.228 26.535 104.285 26.6594L106.103 25.825ZM105.017 24.6216C104.494 24.3041 103.879 24.1875 103.248 24.1875V26.1875C103.649 26.1875 103.868 26.2636 103.98 26.3316L105.017 24.6216ZM103.248 24.1875H100.889V26.1875H103.248V24.1875ZM99.8891 25.1875V35H101.889V25.1875H99.8891ZM100.889 34H98.9281V36H100.889V34ZM99.9281 35V23.625H97.9281V35H99.9281ZM98.9281 24.625H103.248V22.625H98.9281V24.625ZM103.248 24.625C104.013 24.625 104.597 24.761 105.037 24.9851L105.944 23.2024C105.155 22.8015 104.244 22.625 103.248 22.625V24.625ZM105.046 24.9897C105.509 25.2189 105.828 25.5183 106.044 25.8835L107.766 24.8665C107.336 24.138 106.712 23.5832 105.935 23.1978L105.046 24.9897ZM106.046 25.8871C106.267 26.2577 106.389 26.697 106.389 27.2344H108.389C108.389 26.376 108.188 25.5756 107.764 24.8629L106.046 25.8871ZM106.389 27.2344C106.389 27.8194 106.262 28.2608 106.052 28.6018L107.757 29.6482C108.193 28.9371 108.389 28.1181 108.389 27.2344H106.389ZM106.052 28.6018C105.845 28.9405 105.535 29.2177 105.077 29.4253L105.904 31.2466C106.686 30.8917 107.319 30.3616 107.757 29.6482L106.052 28.6018ZM105.075 29.4266C104.624 29.6329 104.027 29.7578 103.248 29.7578V31.7578C104.231 31.7578 105.128 31.6014 105.907 31.2452L105.075 29.4266ZM118.52 33.6797L117.766 33.0235L117.762 33.0282L118.52 33.6797ZM117.036 34.7812L117.433 35.6991L117.44 35.6961L117.036 34.7812ZM113.2 34.7812L112.793 35.6948L112.803 35.6991L113.2 34.7812ZM111.708 33.6797L110.957 34.3405L111.708 33.6797ZM110.723 31.9375L109.775 32.2559L109.778 32.2624L110.723 31.9375ZM110.723 26.6953L111.671 27.0159L111.671 27.0137L110.723 26.6953ZM111.692 24.9531L110.938 24.2963L110.938 24.2969L111.692 24.9531ZM113.184 23.8516L113.584 24.7681L113.588 24.7664L113.184 23.8516ZM117.02 23.8516L116.616 24.7664L116.623 24.7694L117.02 23.8516ZM118.512 24.9531L117.754 25.6053L117.758 25.6093L118.512 24.9531ZM119.473 26.6953L118.523 27.0072L118.526 27.0159L119.473 26.6953ZM117.669 27.3047L116.697 27.5424L116.7 27.5546L117.669 27.3047ZM117.13 26.0781L116.312 26.6533L116.317 26.6606L116.322 26.6678L117.13 26.0781ZM116.263 25.3281L115.815 26.2226L115.826 26.2279L116.263 25.3281ZM113.942 25.3281L114.384 26.2254L114.395 26.2198L113.942 25.3281ZM113.075 26.0781L112.263 25.4945L112.261 25.4969L113.075 26.0781ZM112.536 27.3047L113.504 27.5546L113.505 27.5521L112.536 27.3047ZM113.083 32.5547L112.267 33.1324L112.272 33.1395L112.277 33.1466L113.083 32.5547ZM113.958 33.3125L113.505 34.2042L113.516 34.2097L113.958 33.3125ZM116.278 33.3125L116.72 34.2097L116.731 34.2042L116.278 33.3125ZM117.138 32.5547L117.956 33.1299L117.96 33.1239L117.138 32.5547ZM117.669 31.3125L116.7 31.0651L116.697 31.0748L117.669 31.3125ZM118.817 29V29.625H120.817V29H118.817ZM118.817 29.625C118.817 30.3986 118.716 31.0615 118.531 31.6256L120.431 32.2494C120.694 31.4489 120.817 30.5701 120.817 29.625H118.817ZM118.531 31.6256C118.343 32.1978 118.084 32.6573 117.766 33.0235L119.275 34.3359C119.79 33.7438 120.171 33.0418 120.431 32.2494L118.531 31.6256ZM117.762 33.0282C117.447 33.3942 117.074 33.6714 116.632 33.8664L117.44 35.6961C118.154 35.3807 118.77 34.9235 119.279 34.3312L117.762 33.0282ZM116.639 33.8634C116.2 34.0532 115.697 34.1562 115.114 34.1562V36.1562C115.938 36.1562 116.716 36.0093 117.433 35.6991L116.639 33.8634ZM115.114 34.1562C114.538 34.1562 114.037 34.0536 113.597 33.8634L112.803 35.6991C113.519 36.0089 114.294 36.1562 115.114 36.1562V34.1562ZM113.607 33.8678C113.168 33.6722 112.787 33.3921 112.458 33.0189L110.957 34.3405C111.472 34.9256 112.086 35.3799 112.793 35.6947L113.607 33.8678ZM112.458 33.0189C112.133 32.6498 111.867 32.1873 111.669 31.6126L109.778 32.2624C110.049 33.0523 110.438 33.7512 110.957 34.3405L112.458 33.0189ZM111.671 31.6191C111.483 31.0571 111.38 30.3965 111.38 29.625H109.38C109.38 30.5722 109.506 31.4533 109.775 32.2559L111.671 31.6191ZM111.38 29.625V29H109.38V29.625H111.38ZM111.38 29C111.38 28.2283 111.483 27.5713 111.671 27.0159L109.776 26.3747C109.506 27.1735 109.38 28.053 109.38 29H111.38ZM111.671 27.0137C111.864 26.4391 112.127 25.9773 112.447 25.6093L110.938 24.2969C110.424 24.8873 110.041 25.5869 109.775 26.3769L111.671 27.0137ZM112.446 25.6099C112.774 25.2341 113.151 24.9572 113.584 24.7681L112.784 22.935C112.072 23.246 111.455 23.7034 110.938 24.2963L112.446 25.6099ZM113.588 24.7664C114.026 24.573 114.525 24.4688 115.098 24.4688V22.4688C114.276 22.4688 113.499 22.6197 112.781 22.9367L113.588 24.7664ZM115.098 24.4688C115.678 24.4688 116.179 24.5734 116.616 24.7664L117.424 22.9367C116.705 22.6193 115.925 22.4688 115.098 22.4688V24.4688ZM116.623 24.7694C117.061 24.9584 117.435 25.2339 117.754 25.6053L119.271 24.301C118.757 23.7036 118.136 23.2447 117.417 22.9337L116.623 24.7694ZM117.758 25.6093C118.076 25.9755 118.336 26.435 118.523 27.0072L120.424 26.3834C120.163 25.591 119.782 24.889 119.267 24.2969L117.758 25.6093ZM118.526 27.0159C118.714 27.5713 118.817 28.2283 118.817 29H120.817C120.817 28.053 120.691 27.1735 120.421 26.3747L118.526 27.0159ZM118.856 29.625V28.9844H116.856V29.625H118.856ZM118.856 28.9844C118.856 28.2862 118.788 27.6393 118.637 27.0548L116.7 27.5546C116.8 27.9388 116.856 28.4117 116.856 28.9844H118.856ZM118.64 27.067C118.496 26.4801 118.27 25.9441 117.937 25.4884L116.322 26.6678C116.468 26.8684 116.601 27.1501 116.697 27.5424L118.64 27.067ZM117.948 25.5029C117.622 25.0403 117.205 24.674 116.699 24.4283L115.826 26.2279C116.007 26.3156 116.168 26.4493 116.312 26.6533L117.948 25.5029ZM116.71 24.4337C116.211 24.1841 115.666 24.0703 115.098 24.0703V26.0703C115.395 26.0703 115.627 26.1284 115.815 26.2226L116.71 24.4337ZM115.098 24.0703C114.531 24.0703 113.987 24.1841 113.489 24.4365L114.395 26.2198C114.575 26.1284 114.802 26.0703 115.098 26.0703V24.0703ZM113.501 24.431C113.002 24.6764 112.59 25.0398 112.263 25.4945L113.887 26.6618C114.039 26.4498 114.205 26.3132 114.384 26.2253L113.501 24.431ZM112.261 25.4969C111.939 25.9476 111.715 26.477 111.567 27.0573L113.505 27.5521C113.607 27.1532 113.742 26.8649 113.889 26.6594L112.261 25.4969ZM111.568 27.0548C111.417 27.6393 111.348 28.2862 111.348 28.9844H113.348C113.348 28.4117 113.405 27.9388 113.504 27.5546L111.568 27.0548ZM111.348 28.9844V29.625H113.348V28.9844H111.348ZM111.348 29.625C111.348 30.3235 111.417 30.9719 111.567 31.5599L113.505 31.0651C113.405 30.674 113.348 30.1973 113.348 29.625H111.348ZM111.567 31.5599C111.716 32.1429 111.943 32.6748 112.267 33.1324L113.899 31.977C113.744 31.7575 113.606 31.4613 113.505 31.0651L111.567 31.5599ZM112.277 33.1466C112.606 33.5947 113.015 33.9552 113.505 34.2042L114.411 32.4208C114.224 32.326 114.049 32.1814 113.889 31.9628L112.277 33.1466ZM113.516 34.2097C114.011 34.4532 114.551 34.5625 115.114 34.5625V32.5625C114.813 32.5625 114.582 32.5051 114.399 32.4153L113.516 34.2097ZM115.114 34.5625C115.68 34.5625 116.224 34.454 116.72 34.2097L115.836 32.4153C115.656 32.5043 115.423 32.5625 115.114 32.5625V34.5625ZM116.731 34.2042C117.226 33.9529 117.634 33.5869 117.956 33.1299L116.319 31.9795C116.172 32.1891 116.008 32.3284 115.825 32.4208L116.731 34.2042ZM117.96 33.1239C118.277 32.6652 118.498 32.1327 118.64 31.5502L116.697 31.0748C116.6 31.4715 116.466 31.7671 116.315 31.9855L117.96 33.1239ZM118.638 31.5599C118.788 30.9719 118.856 30.3235 118.856 29.625H116.856C116.856 30.1973 116.8 30.674 116.7 31.0651L118.638 31.5599ZM130.589 23.625H131.589V22.625H130.589V23.625ZM130.589 25.1875V26.1875H131.589V25.1875H130.589ZM125.3 25.1875V24.1875H124.3V25.1875H125.3ZM125.3 35V36H126.3V35H125.3ZM123.347 35H122.347V36H123.347V35ZM123.347 23.625V22.625H122.347V23.625H123.347ZM124.706 27.9922V26.9922H123.706V27.9922H124.706ZM129.784 28.4297L129.356 29.3331L129.362 29.3361L129.784 28.4297ZM131.402 32.8906L130.48 32.5021L131.402 32.8906ZM130.597 34.0156L131.259 34.7655L131.265 34.76L130.597 34.0156ZM129.3 34.7422L128.981 33.7945L128.978 33.7955L129.3 34.7422ZM123.347 35H122.347V36H123.347V35ZM123.347 23.625V22.625H122.347V23.625H123.347ZM125.316 23.625H126.316V22.625H125.316V23.625ZM125.316 33.4453H124.316V34.4453H125.316V33.4453ZM128.784 33.1719L129.282 34.0393L129.293 34.0331L128.784 33.1719ZM129.488 32.4375L128.599 31.978L128.593 31.9903L129.488 32.4375ZM129.488 30.4922L128.603 30.9586L128.61 30.971L129.488 30.4922ZM124.706 29.5469H123.706V30.5469H124.706V29.5469ZM129.589 23.625V25.1875H131.589V23.625H129.589ZM130.589 24.1875H125.3V26.1875H130.589V24.1875ZM124.3 25.1875V35H126.3V25.1875H124.3ZM125.3 34H123.347V36H125.3V34ZM124.347 35V23.625H122.347V35H124.347ZM123.347 24.625H130.589V22.625H123.347V24.625ZM124.706 28.9922H127.566V26.9922H124.706V28.9922ZM127.566 28.9922C128.321 28.9922 128.906 29.1198 129.356 29.3331L130.213 27.5263C129.433 27.1562 128.54 26.9922 127.566 26.9922V28.9922ZM129.362 29.3361C129.82 29.5494 130.131 29.8295 130.341 30.1676L132.041 29.1137C131.604 28.4101 130.978 27.8829 130.207 27.5233L129.362 29.3361ZM130.341 30.1676C130.553 30.5102 130.675 30.9295 130.675 31.4609H132.675C132.675 30.6069 132.474 29.8127 132.041 29.1137L130.341 30.1676ZM130.675 31.4609C130.675 31.863 130.605 32.2056 130.48 32.5021L132.323 33.2792C132.563 32.711 132.675 32.1005 132.675 31.4609H130.675ZM130.48 32.5021C130.356 32.7965 130.175 33.0506 129.929 33.2712L131.265 34.76C131.727 34.3453 132.083 33.8493 132.323 33.2792L130.48 32.5021ZM129.935 33.2658C129.694 33.4787 129.383 33.6592 128.981 33.7945L129.619 35.6899C130.238 35.4815 130.791 35.1776 131.258 34.7655L129.935 33.2658ZM128.978 33.7955C128.596 33.9253 128.13 34 127.566 34V36C128.303 36 128.993 35.9028 129.622 35.6889L128.978 33.7955ZM127.566 34H123.347V36H127.566V34ZM124.347 35V23.625H122.347V35H124.347ZM123.347 24.625H125.316V22.625H123.347V24.625ZM124.316 23.625V33.4453H126.316V23.625H124.316ZM125.316 34.4453H127.566V32.4453H125.316V34.4453ZM127.566 34.4453C128.176 34.4453 128.769 34.3337 129.282 34.0392L128.287 32.3045C128.164 32.3746 127.945 32.4453 127.566 32.4453V34.4453ZM129.293 34.0331C129.76 33.7571 130.137 33.3749 130.382 32.8847L128.593 31.9903C128.536 32.1042 128.444 32.2117 128.276 32.3107L129.293 34.0331ZM130.376 32.8969C130.61 32.4448 130.722 31.9552 130.722 31.4453H128.722C128.722 31.6541 128.678 31.8261 128.599 31.9781L130.376 32.8969ZM130.722 31.4453C130.722 30.941 130.607 30.4568 130.365 30.0133L128.61 30.971C128.68 31.1004 128.722 31.2517 128.722 31.4453H130.722ZM130.372 30.0258C130.118 29.5443 129.731 29.1799 129.26 28.9251L128.309 30.6842C128.473 30.7732 128.555 30.8671 128.603 30.9586L130.372 30.0258ZM129.26 28.9251C128.752 28.6504 128.168 28.5469 127.566 28.5469V30.5469C127.953 30.5469 128.181 30.6152 128.309 30.6842L129.26 28.9251ZM127.566 28.5469H124.706V30.5469H127.566V28.5469ZM125.706 29.5469V27.9922H123.706V29.5469H125.706ZM142.556 28.375H143.556V27.375H142.556V28.375ZM142.556 29.9297V30.9297H143.556V29.9297H142.556ZM136.517 29.9297H135.517V30.9297H136.517V29.9297ZM136.517 28.375V27.375H135.517V28.375H136.517ZM137.002 23.625H138.002V22.625H137.002V23.625ZM137.002 35V36H138.002V35H137.002ZM135.041 35H134.041V36H135.041V35ZM135.041 23.625V22.625H134.041V23.625H135.041ZM144.064 23.625H145.064V22.625H144.064V23.625ZM144.064 35V36H145.064V35H144.064ZM142.111 35H141.111V36H142.111V35ZM142.111 23.625V22.625H141.111V23.625H142.111ZM141.556 28.375V29.9297H143.556V28.375H141.556ZM142.556 28.9297H136.517V30.9297H142.556V28.9297ZM137.517 29.9297V28.375H135.517V29.9297H137.517ZM136.517 29.375H142.556V27.375H136.517V29.375ZM136.002 23.625V35H138.002V23.625H136.002ZM137.002 34H135.041V36H137.002V34ZM136.041 35V23.625H134.041V35H136.041ZM135.041 24.625H137.002V22.625H135.041V24.625ZM143.064 23.625V35H145.064V23.625H143.064ZM144.064 34H142.111V36H144.064V34ZM143.111 35V23.625H141.111V35H143.111ZM142.111 24.625H144.064V22.625H142.111V24.625ZM155.445 33.4453H156.445V32.4453H155.445V33.4453ZM155.445 35V36H156.445V35H155.445ZM149.406 35H148.406V36H149.406V35ZM149.406 33.4453V32.4453H148.406V33.4453H149.406ZM149.961 23.625H150.961V22.625H149.961V23.625ZM149.961 35V36H150.961V35H149.961ZM148 35H147V36H148V35ZM148 23.625V22.625H147V23.625H148ZM154.656 28.375H155.656V27.375H154.656V28.375ZM154.656 29.9062V30.9062H155.656V29.9062H154.656ZM149.406 29.9062H148.406V30.9062H149.406V29.9062ZM149.406 28.375V27.375H148.406V28.375H149.406ZM155.406 23.625H156.406V22.625H155.406V23.625ZM155.406 25.1875V26.1875H156.406V25.1875H155.406ZM149.406 25.1875H148.406V26.1875H149.406V25.1875ZM149.406 23.625V22.625H148.406V23.625H149.406ZM154.445 33.4453V35H156.445V33.4453H154.445ZM155.445 34H149.406V36H155.445V34ZM150.406 35V33.4453H148.406V35H150.406ZM149.406 34.4453H155.445V32.4453H149.406V34.4453ZM148.961 23.625V35H150.961V23.625H148.961ZM149.961 34H148V36H149.961V34ZM149 35V23.625H147V35H149ZM148 24.625H149.961V22.625H148V24.625ZM153.656 28.375V29.9062H155.656V28.375H153.656ZM154.656 28.9062H149.406V30.9062H154.656V28.9062ZM150.406 29.9062V28.375H148.406V29.9062H150.406ZM149.406 29.375H154.656V27.375H149.406V29.375ZM154.406 23.625V25.1875H156.406V23.625H154.406ZM155.406 24.1875H149.406V26.1875H155.406V24.1875ZM150.406 25.1875V23.625H148.406V25.1875H150.406ZM149.406 24.625H155.406V22.625H149.406V24.625ZM166.092 33.4453H167.092V32.4453H166.092V33.4453ZM166.092 35V36H167.092V35H166.092ZM160.053 35H159.053V36H160.053V35ZM160.053 33.4453V32.4453H159.053V33.4453H160.053ZM160.608 23.625H161.608V22.625H160.608V23.625ZM160.608 35V36H161.608V35H160.608ZM158.647 35H157.647V36H158.647V35ZM158.647 23.625V22.625H157.647V23.625H158.647ZM165.303 28.375H166.303V27.375H165.303V28.375ZM165.303 29.9062V30.9062H166.303V29.9062H165.303ZM160.053 29.9062H159.053V30.9062H160.053V29.9062ZM160.053 28.375V27.375H159.053V28.375H160.053ZM166.053 23.625H167.053V22.625H166.053V23.625ZM166.053 25.1875V26.1875H167.053V25.1875H166.053ZM160.053 25.1875H159.053V26.1875H160.053V25.1875ZM160.053 23.625V22.625H159.053V23.625H160.053ZM165.092 33.4453V35H167.092V33.4453H165.092ZM166.092 34H160.053V36H166.092V34ZM161.053 35V33.4453H159.053V35H161.053ZM160.053 34.4453H166.092V32.4453H160.053V34.4453ZM159.608 23.625V35H161.608V23.625H159.608ZM160.608 34H158.647V36H160.608V34ZM159.647 35V23.625H157.647V35H159.647ZM158.647 24.625H160.608V22.625H158.647V24.625ZM164.303 28.375V29.9062H166.303V28.375H164.303ZM165.303 28.9062H160.053V30.9062H165.303V28.9062ZM161.053 29.9062V28.375H159.053V29.9062H161.053ZM160.053 29.375H165.303V27.375H160.053V29.375ZM165.053 23.625V25.1875H167.053V23.625H165.053ZM166.053 24.1875H160.053V26.1875H166.053V24.1875ZM161.053 25.1875V23.625H159.053V25.1875H161.053ZM160.053 24.625H166.053V22.625H160.053V24.625Z" fill="black"/>
</g>
<defs>
<filter id="filter0_d_104_83" x="0" y="0" width="228" height="64.8965" filterUnits="userSpaceOnUse" color-interpolation-filters="sRGB">
<feFlood flood-opacity="0" result="BackgroundImageFix"/>
<feColorMatrix in="SourceAlpha" type="matrix" values="0 0 0 0 0 0 0 0 0 0 0 0 0 0 0 0 0 0 127 0" result="hardAlpha"/>
<feOffset dy="4"/>
<feGaussianBlur stdDeviation="2"/>
<feComposite in2="hardAlpha" operator="out"/>
<feColorMatrix type="matrix" values="0 0 0 0 0 0 0 0 0 0 0 0 0 0 0 0 0 0 0.25 0"/>
<feBlend mode="normal" in2="BackgroundImageFix" result="effect1_dropShadow_104_83"/>
<feBlend mode="normal" in="SourceGraphic" in2="effect1_dropShadow_104_83" result="shape"/>
</filter>
</defs>
</svg>
